<?xml version="1.0" encoding="UTF-8" standalone="no"?>
<!-- Created with Inkscape (http://www.inkscape.org/) -->

<svg
   xmlns:dc="http://purl.org/dc/elements/1.1/"
   xmlns:cc="http://creativecommons.org/ns#"
   xmlns:rdf="http://www.w3.org/1999/02/22-rdf-syntax-ns#"
   xmlns:svg="http://www.w3.org/2000/svg"
   xmlns="http://www.w3.org/2000/svg"
   xmlns:sodipodi="http://sodipodi.sourceforge.net/DTD/sodipodi-0.dtd"
   xmlns:inkscape="http://www.inkscape.org/namespaces/inkscape"
   width="20"
   height="20"
   viewBox="0 0 5.2916665 5.2916668"
   version="1.1"
   id="svg8"
   inkscape:version="0.92.4 (5da689c313, 2019-01-14)"
   sodipodi:docname="closeAppFormBtn.svg">
  <defs
     id="defs2" />
  <sodipodi:namedview
     id="base"
     pagecolor="#ffffff"
     bordercolor="#666666"
     borderopacity="1.0"
     inkscape:pageopacity="0.0"
     inkscape:pageshadow="2"
     inkscape:zoom="1"
     inkscape:cx="-132.06883"
     inkscape:cy="-101.27777"
     inkscape:document-units="mm"
     inkscape:current-layer="layer1"
     showgrid="false"
     showguides="false"
     inkscape:object-paths="true"
     inkscape:snap-smooth-nodes="true"
     inkscape:snap-intersection-paths="true"
     inkscape:snap-center="true"
     inkscape:window-width="1920"
     inkscape:window-height="1001"
     inkscape:window-x="-9"
     inkscape:window-y="-9"
     inkscape:window-maximized="1"
     inkscape:snap-global="true"
     inkscape:snap-bbox="true"
     inkscape:bbox-paths="true"
     inkscape:snap-bbox-edge-midpoints="true"
     inkscape:snap-bbox-midpoints="true"
     inkscape:bbox-nodes="true"
     units="px"
     inkscape:showpageshadow="false"
     inkscape:snap-page="true" />
  <metadata
     id="metadata5">
    <rdf:RDF>
      <cc:Work
         rdf:about="">
        <dc:format>image/svg+xml</dc:format>
        <dc:type
           rdf:resource="http://purl.org/dc/dcmitype/StillImage" />
        <dc:title></dc:title>
      </cc:Work>
    </rdf:RDF>
  </metadata>
  <g
     inkscape:label="Layer 1"
     inkscape:groupmode="layer"
     id="layer1"
     transform="translate(0,-291.70832)">
    <path
       inkscape:export-ydpi="96"
       inkscape:export-xdpi="96"
       inkscape:export-filename="C:\My\Projects\Web\sibur_arenda_1.0\src\resource\img\removeRoomBtnHover.png"
       inkscape:connector-curvature="0"
       id="path823"
       d="m 0.5224946,291.70838 a 0.53007926,0.53007926 0 0 0 -0.366895,0.15502 0.53007926,0.53007926 0 0 0 0,0.74981 l 1.741459,1.74044 -1.740428,1.74145 a 0.53007926,0.53007926 0 0 0 0,0.74929 0.53007926,0.53007926 0 0 0 0.749813,5.2e-4 l 1.740424,-1.74093 -5.29e-4,-5.2e-4 h 5.29e-4 v 5.2e-4 l 1.73991,1.74093 a 0.53007926,0.53007926 0 0 0 0.74981,-5.2e-4 0.53007926,0.53007926 0 0 0 0,-0.74929 l -1.740428,-1.74145 1.74146,-1.74044 a 0.53007926,0.53007926 0 0 0 0,-0.74981 0.53007926,0.53007926 0 0 0 -0.749293,5.4e-4 l -1.741459,1.74043 h -5.29e-4 l -1.740943,-1.74043 a 0.53007926,0.53007926 0 0 0 -0.382914,-0.15556 z"
       style="opacity:1;fill:#efefef;fill-opacity:1;stroke:none;stroke-width:0.66145837;stroke-linecap:butt;stroke-miterlimit:4;stroke-dasharray:none;stroke-dashoffset:0;stroke-opacity:1;paint-order:fill markers stroke" />
  </g>
</svg>
