<?xml version="1.0" encoding="UTF-8" standalone="no"?>
<!-- Created with Inkscape (http://www.inkscape.org/) -->

<svg
   xmlns:dc="http://purl.org/dc/elements/1.1/"
   xmlns:cc="http://creativecommons.org/ns#"
   xmlns:rdf="http://www.w3.org/1999/02/22-rdf-syntax-ns#"
   xmlns:svg="http://www.w3.org/2000/svg"
   xmlns="http://www.w3.org/2000/svg"
   xmlns:sodipodi="http://sodipodi.sourceforge.net/DTD/sodipodi-0.dtd"
   xmlns:inkscape="http://www.inkscape.org/namespaces/inkscape"
   width="28"
   height="28"
   viewBox="0 0 7.4083331 7.4083334"
   version="1.1"
   id="svg8"
   inkscape:version="0.92.4 (5da689c313, 2019-01-14)"
   sodipodi:docname="fullFieldHvr.svg">
  <defs
     id="defs2" />
  <sodipodi:namedview
     id="base"
     pagecolor="#ffffff"
     bordercolor="#666666"
     borderopacity="1.0"
     inkscape:pageopacity="0.0"
     inkscape:pageshadow="2"
     inkscape:zoom="1.4142135"
     inkscape:cx="-147.31361"
     inkscape:cy="12.364066"
     inkscape:document-units="mm"
     inkscape:current-layer="layer1"
     showgrid="false"
     showguides="true"
     inkscape:object-paths="true"
     inkscape:snap-smooth-nodes="true"
     inkscape:snap-intersection-paths="true"
     inkscape:snap-center="true"
     inkscape:window-width="1920"
     inkscape:window-height="1001"
     inkscape:window-x="-9"
     inkscape:window-y="-9"
     inkscape:window-maximized="1"
     inkscape:snap-global="true"
     inkscape:snap-bbox="true"
     inkscape:bbox-paths="true"
     inkscape:snap-bbox-edge-midpoints="true"
     inkscape:snap-bbox-midpoints="true"
     inkscape:bbox-nodes="true"
     units="px"
     inkscape:showpageshadow="false"
     inkscape:snap-page="true"
     inkscape:snap-object-midpoints="true"
     inkscape:snap-nodes="true"
     inkscape:snap-midpoints="true" />
  <metadata
     id="metadata5">
    <rdf:RDF>
      <cc:Work
         rdf:about="">
        <dc:format>image/svg+xml</dc:format>
        <dc:type
           rdf:resource="http://purl.org/dc/dcmitype/StillImage" />
        <dc:title></dc:title>
      </cc:Work>
    </rdf:RDF>
  </metadata>
  <g
     inkscape:label="Layer 1"
     inkscape:groupmode="layer"
     id="layer1"
     transform="translate(0,-289.59166)">
    <rect
       style="opacity:1;fill:none;fill-opacity:1;stroke:none;stroke-width:0.21166664;stroke-linecap:round;stroke-linejoin:miter;stroke-miterlimit:4;stroke-dasharray:none;stroke-dashoffset:0;stroke-opacity:1;paint-order:fill markers stroke"
       id="rect992"
       width="7.4083252"
       height="7.4083252"
       x="0"
       y="289.59167" />
    <path
       style="opacity:1;fill:#da6509;fill-opacity:1;stroke:none;stroke-width:0.52916664;stroke-linecap:round;stroke-linejoin:miter;stroke-miterlimit:4;stroke-dasharray:none;stroke-dashoffset:0;stroke-opacity:1;paint-order:fill markers stroke"
       d="m 3.6723411,289.92539 -0.1388559,0.1001 c 0.520556,0.72548 0.3032638,1.563 -0.3442492,2.13641 -0.035586,0.0766 -0.08321,0.14728 -0.1562136,0.19957 -0.073669,0.0528 -0.1570444,0.0764 -0.2415541,0.0855 -0.7493378,0.42624 -1.6098783,0.36349 -2.12913745,-0.36019 l -0.14030323,0.1001 1.61565718,2.2521 -0.060752,-0.0895 0.8765336,-0.62771 c -0.2176681,-0.38422 -0.1283924,-0.87353 0.2386595,-1.1369 0.3667886,-0.2631 0.8622903,-0.19379 1.1571404,0.13482 l 0.8765352,-0.62795 z m -0.2039478,0.14634 -0.8316944,0.59735 0.040499,-0.015 0.057858,0.14354 -0.073767,0.0319 -0.057858,-0.13482 -1.0124973,0.72613 0.1099292,0.0986 -0.054963,0.0596 -0.1157126,-0.10122 0.027486,-0.0319 -0.8302478,0.59592 c 0.4682252,0.65244 1.2221428,0.73897 1.9063878,0.40356 -0.1205089,-0.0249 -0.2325073,-0.0893 -0.3095347,-0.19678 -0.02536,-0.0351 -0.036981,-0.0752 -0.05207,-0.1141 l -0.020236,-0.015 0.00868,-0.0112 c -0.010864,-0.0335 -0.017994,-0.0657 -0.021682,-0.1001 l -0.046289,0.0533 -0.1214974,-0.10682 0.05207,-0.0609 0.1157126,0.10122 c -0.014354,-0.1723 0.050764,-0.34916 0.2010506,-0.45704 0.151239,-0.10864 0.3409613,-0.11368 0.5004635,-0.0435 l -0.060751,-0.14466 0.075213,-0.029 0.063642,0.14746 -0.06943,0.029 c 0.030969,0.0126 0.058936,0.0316 0.086786,0.0521 l 0.014466,-0.004 0.012992,0.0305 c 0.029977,0.0249 0.062777,0.0476 0.086786,0.0806 0.077323,0.10766 0.1034724,0.23623 0.088233,0.3587 0.5395148,-0.5409 0.6991789,-1.2857 0.2299832,-1.93958 z m -0.7029624,0.79841 0.063642,0.14747 -0.073767,0.0335 -0.063642,-0.14897 z m 0.095463,0.22279 0.062195,0.14898 -0.072321,0.0319 -0.063644,-0.14898 z m -1.0992829,0.47733 0.1214988,0.1057 -0.054963,0.0609 -0.1200525,-0.10682 z m 1.0269618,0.0596 c -0.081179,-0.0126 -0.1670945,0.004 -0.2401069,0.058 -0.1460236,0.10472 -0.1785445,0.30372 -0.073767,0.44982 0.1047758,0.14596 0.3038143,0.17864 0.4498382,0.0739 0.1460236,-0.10472 0.1785426,-0.30379 0.073767,-0.44986 -0.052386,-0.0728 -0.1285533,-0.11844 -0.2097311,-0.13146 z m -0.8461587,0.10136 0.1200525,0.10682 -0.053518,0.0596 -0.1214973,-0.10682 z m 3.3904209,0.50912 -0.8765339,0.62916 c 0.2154882,0.38474 0.1260781,0.87856 -0.2401071,1.14129 -0.3659945,0.26254 -0.8592875,0.18693 -1.1542474,-0.14023 l -0.8794265,0.63065 1.5534604,2.16534 0.140304,-0.10122 h -0.00146 c -0.5203356,-0.72519 -0.3026947,-1.56296 0.3442491,-2.13641 0.035621,-0.0753 0.084108,-0.14504 0.1562157,-0.19679 0.071988,-0.0519 0.1532512,-0.0741 0.2357683,-0.084 0.3410051,-0.19551 0.7048267,-0.29534 1.050104,-0.27042 0.4150825,0.0298 0.8018837,0.23019 1.0862653,0.6263 v 0.001 l 0.1388559,-0.0995 z m -1.5158542,0.37174 c -0.1744808,-0.028 -0.3604795,0.0126 -0.5163734,0.12292 -0.2856804,0.20492 -0.3592267,0.57931 -0.1996073,0.88088 l 1.0978367,-0.78842 c -0.1065397,-0.11242 -0.2366809,-0.19249 -0.3818564,-0.21543 z m 0.4888917,0.36594 -1.0978366,0.78686 c 0.2352224,0.24629 0.6148365,0.29833 0.8996767,0.0942 0.284518,-0.20385 0.3556013,-0.57922 0.1981599,-0.88086 z m 1.2453726,0.97634 c -0.2584659,-4e-5 -0.5252582,0.0679 -0.7825164,0.1955 0.1227504,0.0249 0.2370391,0.0906 0.3153206,0.19956 0.02309,0.0322 0.031724,0.069 0.046287,0.10388 l 0.027486,0.0231 -0.01155,0.0126 c 0.010556,0.0323 0.017864,0.0636 0.021683,0.097 l 0.04918,-0.0549 0.1200497,0.10682 -0.05207,0.0609 -0.1171601,-0.1029 c 0.016464,0.17454 -0.047631,0.35237 -0.1996077,0.46144 -0.1508432,0.10864 -0.3397612,0.11312 -0.4990162,0.0435 l 0.059301,0.14153 -0.075215,0.029 -0.062196,-0.14748 0.066533,-0.028 c -0.031343,-0.0126 -0.06012,-0.0311 -0.088229,-0.0521 l -0.01155,0.004 -0.01155,-0.028 c -0.030468,-0.0249 -0.063889,-0.047 -0.088235,-0.0806 -0.077626,-0.1085 -0.1038784,-0.23706 -0.088235,-0.36015 -0.5378055,0.54082 -0.6970783,1.28376 -0.2285351,1.93676 l 0.8635153,-0.62051 -0.033268,0.0231 -0.039057,0.015 -0.059301,-0.14354 0.073767,-0.0319 0.057858,0.13468 1.0124983,-0.72612 -0.1084816,-0.0983 0.053518,-0.0595 0.1171616,0.10136 -0.028927,0.0319 0.8316936,-0.59595 c -0.2936995,-0.40617 -0.7003704,-0.59416 -1.1311482,-0.59426 z m -0.8273556,0.37161 c -0.081177,-0.0126 -0.1670927,0.004 -0.2401069,0.0581 -0.1460236,0.10458 -0.1799895,0.3038 -0.075213,0.44982 0.1047744,0.14618 0.3052606,0.17864 0.4512847,0.0739 0.1460236,-0.10486 0.1785428,-0.3038 0.073767,-0.44983 -0.052386,-0.0728 -0.1285562,-0.11844 -0.2097312,-0.13146 z m 0.6769274,0.36742 0.1200497,0.10682 -0.053518,0.0595 -0.1214973,-0.10682 z m 0.1793565,0.16054 0.1214974,0.10864 -0.053518,0.058 -0.1215016,-0.10556 z m -1.021176,0.46285 0.063641,0.14895 -0.075215,0.0319 -0.062193,-0.14895 z m 0.095463,0.22284 0.062195,0.14896 -0.073767,0.0335 -0.062195,-0.14896 z"
       id="rect846"
       inkscape:connector-curvature="0" />
  </g>
</svg>
