<?xml version="1.0" encoding="UTF-8" standalone="no"?>
<!-- Created with Inkscape (http://www.inkscape.org/) -->

<svg
   xmlns:dc="http://purl.org/dc/elements/1.1/"
   xmlns:cc="http://creativecommons.org/ns#"
   xmlns:rdf="http://www.w3.org/1999/02/22-rdf-syntax-ns#"
   xmlns:svg="http://www.w3.org/2000/svg"
   xmlns="http://www.w3.org/2000/svg"
   xmlns:sodipodi="http://sodipodi.sourceforge.net/DTD/sodipodi-0.dtd"
   xmlns:inkscape="http://www.inkscape.org/namespaces/inkscape"
   width="28"
   height="28"
   viewBox="0 0 7.4083331 7.4083334"
   version="1.1"
   id="svg8"
   inkscape:version="0.92.4 (5da689c313, 2019-01-14)"
   sodipodi:docname="fullField.svg">
  <defs
     id="defs2" />
  <sodipodi:namedview
     id="base"
     pagecolor="#ffffff"
     bordercolor="#666666"
     borderopacity="1.0"
     inkscape:pageopacity="0.0"
     inkscape:pageshadow="2"
     inkscape:zoom="0.99999994"
     inkscape:cx="316.91158"
     inkscape:cy="39.413751"
     inkscape:document-units="mm"
     inkscape:current-layer="layer1"
     showgrid="false"
     showguides="true"
     inkscape:object-paths="true"
     inkscape:snap-smooth-nodes="true"
     inkscape:snap-intersection-paths="true"
     inkscape:snap-center="true"
     inkscape:window-width="1920"
     inkscape:window-height="1001"
     inkscape:window-x="-9"
     inkscape:window-y="-9"
     inkscape:window-maximized="1"
     inkscape:snap-global="true"
     inkscape:snap-bbox="true"
     inkscape:bbox-paths="true"
     inkscape:snap-bbox-edge-midpoints="true"
     inkscape:snap-bbox-midpoints="true"
     inkscape:bbox-nodes="true"
     units="px"
     inkscape:showpageshadow="false"
     inkscape:snap-page="true"
     inkscape:snap-object-midpoints="true"
     inkscape:snap-nodes="true"
     inkscape:snap-midpoints="true" />
  <metadata
     id="metadata5">
    <rdf:RDF>
      <cc:Work
         rdf:about="">
        <dc:format>image/svg+xml</dc:format>
        <dc:type
           rdf:resource="http://purl.org/dc/dcmitype/StillImage" />
        <dc:title></dc:title>
      </cc:Work>
    </rdf:RDF>
  </metadata>
  <g
     inkscape:label="Layer 1"
     inkscape:groupmode="layer"
     id="layer1"
     transform="translate(0,-289.59166)">
    <rect
       style="opacity:1;fill:none;fill-opacity:1;stroke:none;stroke-width:0.21166667;stroke-linecap:round;stroke-linejoin:miter;stroke-miterlimit:4;stroke-dasharray:none;stroke-dashoffset:0;stroke-opacity:1;paint-order:fill markers stroke"
       id="rect992"
       width="7.4083333"
       height="7.4083333"
       x="0"
       y="289.59167" />
    <path
       style="opacity:1;fill:#16a4ab;fill-opacity:1;stroke:none;stroke-width:0.52916658;stroke-linecap:round;stroke-linejoin:miter;stroke-miterlimit:4;stroke-dasharray:none;stroke-dashoffset:0;stroke-opacity:1;paint-order:fill markers stroke"
       d="m 3.672345,289.92534 -0.1388561,0.1001 c 0.5205564,0.72548 0.3032641,1.563 -0.3442497,2.13641 -0.035585,0.0766 -0.08321,0.14728 -0.1562139,0.19955 -0.073669,0.0529 -0.1570445,0.0766 -0.2415542,0.0855 -0.7493385,0.42625 -1.60988,0.3635 -2.12913967,-0.36019 l -0.14030333,0.1001 1.615659,2.25211 -0.06075,-0.0893 0.8765344,-0.62772 c -0.2176682,-0.38423 -0.1283939,-0.87354 0.2386597,-1.13689 0.3667891,-0.26312 0.8622912,-0.19378 1.1571416,0.13482 l 0.8765363,-0.62795 z m -0.2039478,0.14634 -0.8316955,0.59736 0.040499,-0.015 0.057858,0.14356 -0.073767,0.0319 -0.057858,-0.13482 -1.0124983,0.72612 0.1099292,0.0986 -0.054964,0.0595 -0.1157127,-0.10122 0.027486,-0.0319 -0.83024876,0.59591 c 0.46822566,0.65244 1.22214406,0.73898 1.90639006,0.40358 -0.1205104,-0.0249 -0.2325078,-0.0892 -0.3095352,-0.19678 -0.02536,-0.0351 -0.03698,-0.0753 -0.05207,-0.1141 l -0.020236,-0.015 0.00868,-0.0112 c -0.010864,-0.0335 -0.017994,-0.0655 -0.02168,-0.1001 l -0.04629,0.0533 -0.1214974,-0.10682 0.05207,-0.0608 0.1157127,0.10122 c -0.014356,-0.17229 0.050764,-0.34915 0.2010509,-0.45706 0.1512391,-0.10864 0.3409617,-0.11368 0.5004639,-0.0435 l -0.06075,-0.14466 0.075213,-0.0288 0.063643,0.14746 -0.06943,0.029 c 0.030969,0.0126 0.058937,0.0315 0.086786,0.0522 l 0.014468,-0.004 0.012992,0.0307 c 0.029977,0.0249 0.062776,0.0476 0.086785,0.0806 0.077323,0.10766 0.1034739,0.23626 0.088235,0.35873 0.5395155,-0.54093 0.6991796,-1.2857 0.2299834,-1.93959 z m -0.7029635,0.79842 0.063643,0.14746 -0.073767,0.0335 -0.063643,-0.14897 z m 0.095463,0.22279 0.062195,0.14896 -0.072321,0.0319 -0.063644,-0.14894 z m -1.0992841,0.47733 0.1214988,0.1057 -0.054964,0.0608 -0.1200526,-0.10682 z m 1.026963,0.0595 c -0.081179,-0.0126 -0.1670948,0.004 -0.2401072,0.058 -0.1460236,0.10472 -0.1785449,0.3037 -0.073767,0.44981 0.1047758,0.14598 0.3038145,0.17865 0.4498387,0.0739 0.1460237,-0.10472 0.1785429,-0.30377 0.073766,-0.44986 -0.052386,-0.0728 -0.1285534,-0.11844 -0.2097313,-0.13132 z m -0.8461597,0.10136 0.1200527,0.10682 -0.053518,0.0595 -0.1214974,-0.10682 z m 3.3904246,0.50913 -0.8765351,0.62916 c 0.2154886,0.38471 0.1260783,0.87855 -0.2401072,1.14129 -0.3659949,0.26253 -0.8592885,0.18693 -1.1542486,-0.1402 l -0.8794273,0.63065 1.5534618,2.16534 0.1403044,-0.10122 h -0.00146 c -0.5203364,-0.72518 -0.3026952,-1.56295 0.3442493,-2.13641 0.035622,-0.0755 0.084106,-0.14505 0.1562157,-0.19678 0.071988,-0.0518 0.1532516,-0.0742 0.2357686,-0.084 0.3410058,-0.19548 0.7048275,-0.29534 1.0501053,-0.27041 0.4150828,0.0298 0.8018846,0.23019 1.0862663,0.6263 v 10e-4 l 0.1388561,-0.0997 z m -1.5158557,0.37174 c -0.1744812,-0.028 -0.3604802,0.0126 -0.516374,0.12278 -0.2856808,0.20492 -0.3592271,0.57929 -0.1996077,0.88088 L 4.198841,292.82717 C 4.0923013,292.71475 3.96216,292.63468 3.8169844,292.61175 Z m 0.488892,0.36593 -1.0978378,0.78687 c 0.2352229,0.24629 0.6148373,0.29831 0.8996778,0.0941 0.2845183,-0.20384 0.3556016,-0.57924 0.19816,-0.88087 z m 1.2453739,0.97634 c -0.2584661,-4e-5 -0.5252587,0.0679 -0.7825171,0.1955 0.1227505,0.0249 0.2370394,0.0904 0.3153209,0.19956 0.02309,0.0321 0.031724,0.069 0.046285,0.10402 l 0.027486,0.0231 -0.011564,0.0126 c 0.010542,0.0323 0.017864,0.0637 0.021683,0.097 l 0.049179,-0.0549 0.1200513,0.10681 -0.05207,0.0608 -0.1171616,-0.1029 c 0.016464,0.17453 -0.047632,0.35237 -0.1996078,0.46144 -0.1508435,0.10864 -0.3397616,0.11312 -0.4990167,0.0435 l 0.059303,0.14152 -0.075215,0.0288 -0.062196,-0.14748 0.066533,-0.028 c -0.031343,-0.0126 -0.060119,-0.0309 -0.088231,-0.0522 l -0.011564,0.004 -0.011564,-0.028 c -0.030467,-0.0249 -0.063889,-0.047 -0.088236,-0.0806 -0.077626,-0.1085 -0.1038784,-0.23709 -0.088236,-0.36016 -0.5378062,0.54083 -0.6970791,1.28375 -0.2285354,1.93675 l 0.8635163,-0.62049 -0.033268,0.0231 -0.039056,0.0148 -0.059303,-0.14353 0.073767,-0.0319 0.057858,0.13454 1.0124993,-0.72612 -0.1084816,-0.0984 0.053518,-0.0595 0.1171616,0.10136 -0.028928,0.0319 0.8316943,-0.59595 c -0.2936632,-0.40611 -0.7003345,-0.5941 -1.1311128,-0.5942 z m -0.8273566,0.3717 c -0.081177,-0.0126 -0.1670929,0.004 -0.2401071,0.058 -0.1460237,0.10472 -0.1799897,0.30382 -0.075213,0.44984 0.1047744,0.14616 0.3052609,0.17864 0.4512852,0.0739 0.1460237,-0.10472 0.1785428,-0.3038 0.073766,-0.44984 -0.052387,-0.0728 -0.1285549,-0.1183 -0.2097314,-0.13132 z m 0.676928,0.36743 0.1200513,0.10682 -0.053518,0.0595 -0.1214974,-0.10682 z m 0.1793569,0.16053 0.1214974,0.10864 -0.053518,0.058 -0.1215017,-0.10542 z m -1.0211771,0.46286 0.06364,0.14896 -0.075215,0.0319 -0.062194,-0.14897 z m 0.095463,0.22284 0.062195,0.14895 -0.073766,0.0335 -0.062195,-0.14898 z"
       id="rect846"
       inkscape:connector-curvature="0" />
  </g>
</svg>
