<?xml version="1.0" encoding="UTF-8" standalone="no"?>
<!-- Created with Inkscape (http://www.inkscape.org/) -->

<svg
   xmlns:dc="http://purl.org/dc/elements/1.1/"
   xmlns:cc="http://creativecommons.org/ns#"
   xmlns:rdf="http://www.w3.org/1999/02/22-rdf-syntax-ns#"
   xmlns:svg="http://www.w3.org/2000/svg"
   xmlns="http://www.w3.org/2000/svg"
   xmlns:sodipodi="http://sodipodi.sourceforge.net/DTD/sodipodi-0.dtd"
   xmlns:inkscape="http://www.inkscape.org/namespaces/inkscape"
   width="28"
   height="28"
   viewBox="0 0 7.4083331 7.4083334"
   version="1.1"
   id="svg8"
   inkscape:version="0.92.4 (5da689c313, 2019-01-14)"
   sodipodi:docname="fullField.svg">
  <defs
     id="defs2" />
  <sodipodi:namedview
     id="base"
     pagecolor="#ffffff"
     bordercolor="#666666"
     borderopacity="1.0"
     inkscape:pageopacity="0.0"
     inkscape:pageshadow="2"
     inkscape:zoom="15.999999"
     inkscape:cx="18.854485"
     inkscape:cy="11.160174"
     inkscape:document-units="mm"
     inkscape:current-layer="layer1"
     showgrid="false"
     showguides="true"
     inkscape:object-paths="true"
     inkscape:snap-smooth-nodes="true"
     inkscape:snap-intersection-paths="true"
     inkscape:snap-center="true"
     inkscape:window-width="1920"
     inkscape:window-height="1001"
     inkscape:window-x="-9"
     inkscape:window-y="-9"
     inkscape:window-maximized="1"
     inkscape:snap-global="true"
     inkscape:snap-bbox="true"
     inkscape:bbox-paths="true"
     inkscape:snap-bbox-edge-midpoints="true"
     inkscape:snap-bbox-midpoints="true"
     inkscape:bbox-nodes="true"
     units="px"
     inkscape:showpageshadow="false"
     inkscape:snap-page="true"
     inkscape:snap-object-midpoints="true"
     inkscape:snap-nodes="true"
     inkscape:snap-midpoints="true" />
  <metadata
     id="metadata5">
    <rdf:RDF>
      <cc:Work
         rdf:about="">
        <dc:format>image/svg+xml</dc:format>
        <dc:type
           rdf:resource="http://purl.org/dc/dcmitype/StillImage" />
        <dc:title></dc:title>
      </cc:Work>
    </rdf:RDF>
  </metadata>
  <g
     inkscape:label="Layer 1"
     inkscape:groupmode="layer"
     id="layer1"
     transform="translate(0,-289.59166)">
    <rect
       style="opacity:1;fill:none;fill-opacity:1;stroke:none;stroke-width:0.21166667;stroke-linecap:round;stroke-linejoin:miter;stroke-miterlimit:4;stroke-dasharray:none;stroke-dashoffset:0;stroke-opacity:1;paint-order:fill markers stroke"
       id="rect992"
       width="7.4083333"
       height="7.4083333"
       x="0"
       y="289.59167" />
    <path
       style="opacity:1;fill:#16a4ab;fill-opacity:1;stroke:none;stroke-width:0.52916658;stroke-linecap:round;stroke-linejoin:miter;stroke-miterlimit:4;stroke-dasharray:none;stroke-dashoffset:0;stroke-opacity:1;paint-order:fill markers stroke"
       d="m 3.672345,289.92534 -0.1388561,0.1001 c 0.5205564,0.72548 0.3032641,1.563 -0.3442497,2.13641 -0.035585,0.0766 -0.08321,0.14728 -0.1562139,0.19955 -0.073669,0.0529 -0.1570445,0.0766 -0.2415542,0.0855 -0.7493385,0.42625 -1.60988,0.3635 -2.12913967,-0.36019 l -0.14030333,0.1001 1.615659,2.25211 -0.06075,-0.0893 0.8765344,-0.62772 c -0.2176682,-0.38423 -0.1283939,-0.87354 0.2386597,-1.13689 0.3667891,-0.26312 0.8622912,-0.19378 1.1571416,0.13482 l 0.8765363,-0.62795 z m -0.2039478,0.14634 -0.8316955,0.59736 0.040499,-0.015 0.057858,0.14356 -0.073767,0.0319 -0.057858,-0.13482 -1.0124983,0.72612 0.1099292,0.0986 -0.054964,0.0595 -0.1157127,-0.10122 0.027486,-0.0319 -0.83024876,0.59591 c 0.46822566,0.65244 1.22214406,0.73898 1.90639006,0.40358 -0.1205104,-0.0249 -0.2325078,-0.0892 -0.3095352,-0.19678 -0.02536,-0.0351 -0.03698,-0.0753 -0.05207,-0.1141 l -0.020236,-0.015 0.00868,-0.0112 c -0.010864,-0.0335 -0.017994,-0.0655 -0.02168,-0.1001 l -0.04629,0.0533 -0.1214974,-0.10682 0.05207,-0.0608 0.1157127,0.10122 c -0.014356,-0.17229 0.050764,-0.34915 0.2010509,-0.45706 0.1512391,-0.10864 0.3409617,-0.11368 0.5004639,-0.0435 l -0.06075,-0.14466 0.075213,-0.0288 0.063643,0.14746 -0.06943,0.029 c 0.030969,0.0126 0.058937,0.0315 0.086786,0.0522 l 0.014468,-0.004 0.012992,0.0307 c 0.029977,0.0249 0.062776,0.0476 0.086785,0.0806 0.077323,0.10766 0.1034739,0.23626 0.088235,0.35873 0.5395155,-0.54093 0.6991796,-1.2857 0.2299834,-1.93959 z m -0.7029635,0.79842 0.063643,0.14746 -0.073767,0.0335 -0.063643,-0.14897 z m 0.095463,0.22279 0.062195,0.14896 -0.072321,0.0319 -0.063644,-0.14894 z m -1.0992841,0.47733 0.1214988,0.1057 -0.054964,0.0608 -0.1200526,-0.10682 z m 1.026963,0.0595 c -0.081179,-0.0126 -0.1670948,0.004 -0.2401072,0.058 -0.1460236,0.10472 -0.1785449,0.3037 -0.073767,0.44981 0.1047758,0.14598 0.3038145,0.17865 0.4498387,0.0739 0.1460237,-0.10472 0.1785429,-0.30377 0.073766,-0.44986 -0.052386,-0.0728 -0.1285534,-0.11844 -0.2097313,-0.13132 z m -0.8461597,0.10136 0.1200527,0.10682 -0.053518,0.0595 -0.1214974,-0.10682 z m 3.3904246,0.50913 -0.8765351,0.62916 c 0.2154886,0.38471 0.1260783,0.87855 -0.2401072,1.14129 -0.3659949,0.26253 -0.8592885,0.18693 -1.1542486,-0.1402 l -0.8794273,0.63065 1.5534618,2.16534 0.1403044,-0.10122 h -0.00146 c -0.5203364,-0.72518 -0.3026952,-1.56295 0.3442493,-2.13641 0.035622,-0.0755 0.084106,-0.14505 0.1562157,-0.19678 0.071988,-0.0518 0.1532516,-0.0742 0.2357686,-0.084 0.3410058,-0.19548 0.7048275,-0.29534 1.0501053,-0.27041 0.4150828,0.0298 0.8018846,0.23019 1.0862663,0.6263 v 10e-4 l 0.1388561,-0.0997 z m -1.5158557,0.37174 c -0.1744812,-0.028 -0.3604802,0.0126 -0.516374,0.12278 -0.2856808,0.20492 -0.3592271,0.57929 -0.1996077,0.88088 L 4.198841,292.82717 C 4.0923013,292.71475 3.96216,292.63468 3.8169844,292.61175 Z m 0.488892,0.36593 -1.0978378,0.78687 c 0.2352229,0.24629 0.6148373,0.29831 0.8996778,0.0941 0.2845183,-0.20384 0.3556016,-0.57924 0.19816,-0.88087 z m 1.2453739,0.97634 c -0.2584661,-4e-5 -0.5252587,0.0679 -0.7825171,0.1955 0.1227505,0.0249 0.2370394,0.0904 0.3153209,0.19956 0.02309,0.0321 0.031724,0.069 0.046285,0.10402 l 0.027486,0.0231 -0.011564,0.0126 c 0.010542,0.0323 0.017864,0.0637 0.021683,0.097 l 0.049179,-0.0549 0.1200513,0.10681 -0.05207,0.0608 -0.1171616,-0.1029 c 0.016464,0.17453 -0.047632,0.35237 -0.1996078,0.46144 -0.1508435,0.10864 -0.3397616,0.11312 -0.4990167,0.0435 l 0.059303,0.14152 -0.075215,0.0288 -0.062196,-0.14748 0.066533,-0.028 c -0.031343,-0.0126 -0.060119,-0.0309 -0.088231,-0.0522 l -0.011564,0.004 -0.011564,-0.028 c -0.030467,-0.0249 -0.063889,-0.047 -0.088236,-0.0806 -0.077626,-0.1085 -0.1038784,-0.23709 -0.088236,-0.36016 -0.5378062,0.54083 -0.6970791,1.28375 -0.2285354,1.93675 l 0.8635163,-0.62049 -0.033268,0.0231 -0.039056,0.0148 -0.059303,-0.14353 0.073767,-0.0319 0.057858,0.13454 1.0124993,-0.72612 -0.1084816,-0.0984 0.053518,-0.0595 0.1171616,0.10136 -0.028928,0.0319 0.8316943,-0.59595 c -0.2936632,-0.40611 -0.7003345,-0.5941 -1.1311128,-0.5942 z m -0.8273566,0.3717 c -0.081177,-0.0126 -0.1670929,0.004 -0.2401071,0.058 -0.1460237,0.10472 -0.1799897,0.30382 -0.075213,0.44984 0.1047744,0.14616 0.3052609,0.17864 0.4512852,0.0739 0.1460237,-0.10472 0.1785428,-0.3038 0.073766,-0.44984 -0.052387,-0.0728 -0.1285549,-0.1183 -0.2097314,-0.13132 z m 0.676928,0.36743 0.1200513,0.10682 -0.053518,0.0595 -0.1214974,-0.10682 z m 0.1793569,0.16053 0.1214974,0.10864 -0.053518,0.058 -0.1215017,-0.10542 z m -1.0211771,0.46286 0.06364,0.14896 -0.075215,0.0319 -0.062194,-0.14897 z m 0.095463,0.22284 0.062195,0.14895 -0.073766,0.0335 -0.062195,-0.14898 z"
       id="rect846"
       inkscape:connector-curvature="0" />
    <rect
       style="opacity:1;fill:none;fill-opacity:1;stroke:none;stroke-width:0.52916664;stroke-linecap:round;stroke-linejoin:miter;stroke-miterlimit:4;stroke-dasharray:none;stroke-dashoffset:0;stroke-opacity:1;paint-order:fill markers stroke"
       id="rect890"
       width="4.4979167"
       height="4.4979167"
       x="54.16217"
       y="308.26428" />
    <rect
       style="opacity:1;fill:none;fill-opacity:1;stroke:#ff00ff;stroke-width:0.13229166;stroke-linecap:butt;stroke-miterlimit:4;stroke-dasharray:none;stroke-dashoffset:0;stroke-opacity:1;paint-order:fill markers stroke"
       id="rect1382"
       width="5.2916665"
       height="5.2916665"
       x="-84.005135"
       y="305.27957"
       inkscape:export-filename="C:\My\Projects\Web\sibur_arenda_1.0\src\resource\img\appFormMinBtn.png"
       inkscape:export-xdpi="96"
       inkscape:export-ydpi="96" />
    <path
       style="opacity:1;fill:#efefef;fill-opacity:1;stroke:none;stroke-width:0.66145831;stroke-linecap:butt;stroke-miterlimit:4;stroke-dasharray:none;stroke-dashoffset:0;stroke-opacity:1;paint-order:fill markers stroke"
       d="m 40.785502,298.08892 a 0.53009016,0.53009016 0 0 0 0.74967,1.8e-4 l 1.740506,-1.74129 0.749486,-0.74987 -0.749834,-0.74947 -1.741318,-1.74051 a 0.53009016,0.53009016 0 0 0 -0.749668,-1.8e-4 0.53009016,0.53009016 0 0 0 2.23e-4,0.74965 l 1.741317,1.74051 -1.740506,1.74132 a 0.53009016,0.53009016 0 0 0 2.22e-4,0.74966 z"
       id="rect831"
       inkscape:connector-curvature="0"
       inkscape:transform-center-x="1.6979872"
       inkscape:transform-center-y="0.00050175847"
       inkscape:export-xdpi="96"
       inkscape:export-ydpi="96"
       inkscape:export-filename="C:\My\Projects\Web\sibur_arenda_1.0\src\resource\img\nextMonthIcon.png" />
    <path
       inkscape:export-ydpi="96"
       inkscape:export-xdpi="96"
       inkscape:transform-center-y="-1.2734895"
       inkscape:transform-center-x="-0.00037595099"
       inkscape:connector-curvature="0"
       id="path829"
       d="m 50.335341,290.89732 a 0.39756745,0.39756745 0 0 1 1.35e-4,0.56225 l -1.305967,1.30538 -0.562403,0.56211 -0.562102,-0.56237 -1.305382,-1.30599 a 0.39756745,0.39756745 0 0 1 -1.35e-4,-0.56225 0.39756745,0.39756745 0 0 1 0.562238,1.7e-4 l 1.305381,1.30598 1.30599,-1.30537 a 0.39756745,0.39756745 0 0 1 0.562245,1.6e-4 z"
       style="opacity:1;fill:#16a4ab;fill-opacity:1;stroke:none;stroke-width:0.66145831;stroke-linecap:butt;stroke-miterlimit:4;stroke-dasharray:none;stroke-dashoffset:0;stroke-opacity:1;paint-order:fill markers stroke"
       inkscape:export-filename="C:\My\Projects\Web\sibur_arenda_1.0\src\resource\img\prevMonthIcon.png" />
    <path
       style="opacity:1;fill:#da6509;fill-opacity:1;stroke:none;stroke-width:0.66145837;stroke-linecap:butt;stroke-miterlimit:4;stroke-dasharray:none;stroke-dashoffset:0;stroke-opacity:1;paint-order:fill markers stroke"
       d="m 29.858159,306.31457 a 0.39755972,0.39755972 0 0 0 -0.275171,0.11626 0.39755972,0.39755972 0 0 0 0,0.56236 l 1.306095,1.30533 -1.305322,1.30609 a 0.39755972,0.39755972 0 0 0 0,0.56197 0.39755972,0.39755972 0 0 0 0.56236,3.9e-4 l 1.305319,-1.3057 -3.97e-4,-3.9e-4 h 3.97e-4 v 3.9e-4 l 1.304933,1.3057 a 0.39755972,0.39755972 0 0 0 0.562358,-3.9e-4 0.39755972,0.39755972 0 0 0 0,-0.56197 l -1.305322,-1.30609 1.306096,-1.30533 a 0.39755972,0.39755972 0 0 0 0,-0.56236 0.39755972,0.39755972 0 0 0 -0.56197,4.1e-4 l -1.306095,1.30532 h -3.97e-4 l -1.305708,-1.30532 a 0.39755972,0.39755972 0 0 0 -0.287186,-0.11667 z"
       id="path822"
       inkscape:connector-curvature="0"
       inkscape:export-filename="C:\My\Projects\Web\sibur_arenda_1.0\src\resource\img\removeRoomBtn.png"
       inkscape:export-xdpi="96"
       inkscape:export-ydpi="96" />
    <path
       inkscape:export-ydpi="96"
       inkscape:export-xdpi="96"
       inkscape:export-filename="C:\My\Projects\Web\sibur_arenda_1.0\src\resource\img\removeRoomBtnHover.png"
       inkscape:connector-curvature="0"
       id="path823"
       d="m 45.385029,279.7235 a 0.53007926,0.53007926 0 0 0 -0.366895,0.15502 0.53007926,0.53007926 0 0 0 0,0.74981 l 1.741459,1.74044 -1.740428,1.74145 a 0.53007926,0.53007926 0 0 0 0,0.74929 0.53007926,0.53007926 0 0 0 0.749813,5.2e-4 l 1.740424,-1.74093 -5.29e-4,-5.2e-4 h 5.29e-4 v 5.2e-4 l 1.73991,1.74093 a 0.53007926,0.53007926 0 0 0 0.74981,-5.2e-4 0.53007926,0.53007926 0 0 0 0,-0.74929 l -1.740428,-1.74145 1.74146,-1.74044 a 0.53007926,0.53007926 0 0 0 0,-0.74981 0.53007926,0.53007926 0 0 0 -0.749293,5.4e-4 l -1.741459,1.74043 h -5.29e-4 l -1.740943,-1.74043 a 0.53007926,0.53007926 0 0 0 -0.382914,-0.15556 z"
       style="opacity:1;fill:#efefef;fill-opacity:1;stroke:none;stroke-width:0.66145837;stroke-linecap:butt;stroke-miterlimit:4;stroke-dasharray:none;stroke-dashoffset:0;stroke-opacity:1;paint-order:fill markers stroke" />
    <path
       inkscape:export-filename="C:\My\Projects\Web\sibur_arenda_1.0\src\resource\img\nextMonthIconHover.png"
       inkscape:export-ydpi="96"
       inkscape:export-xdpi="96"
       inkscape:transform-center-y="0.00050175847"
       inkscape:transform-center-x="1.6979872"
       inkscape:connector-curvature="0"
       id="path825"
       d="m 20.040982,312.56294 a 0.53009016,0.53009016 0 0 0 0.74967,1.8e-4 l 1.740506,-1.74129 0.749486,-0.74987 -0.749834,-0.74947 -1.741318,-1.74051 a 0.53009016,0.53009016 0 0 0 -0.749668,-1.8e-4 0.53009016,0.53009016 0 0 0 2.23e-4,0.74965 l 1.741317,1.74051 -1.740506,1.74132 a 0.53009016,0.53009016 0 0 0 2.22e-4,0.74966 z"
       style="opacity:1;fill:#16a4ab;fill-opacity:1;stroke:none;stroke-width:0.66145831;stroke-linecap:butt;stroke-miterlimit:4;stroke-dasharray:none;stroke-dashoffset:0;stroke-opacity:1;paint-order:fill markers stroke" />
    <path
       inkscape:export-filename="C:\My\Projects\Web\sibur_arenda_1.0\src\resource\img\prevMonthIconHover.png"
       style="opacity:1;fill:#16a4ab;fill-opacity:1;stroke:none;stroke-width:0.66145831;stroke-linecap:butt;stroke-miterlimit:4;stroke-dasharray:none;stroke-dashoffset:0;stroke-opacity:1;paint-order:fill markers stroke"
       d="m 39.020371,287.30311 a 0.53009016,0.53009016 0 0 1 -0.74967,1.8e-4 l -1.740506,-1.74129 -0.749486,-0.74987 0.749834,-0.74947 1.741318,-1.74051 a 0.53009016,0.53009016 0 0 1 0.749668,-1.8e-4 0.53009016,0.53009016 0 0 1 -2.23e-4,0.74965 l -1.741317,1.74051 1.740506,1.74132 a 0.53009016,0.53009016 0 0 1 -2.22e-4,0.74966 z"
       id="path827"
       inkscape:connector-curvature="0"
       inkscape:transform-center-x="-1.6979872"
       inkscape:transform-center-y="0.00050175847"
       inkscape:export-xdpi="96"
       inkscape:export-ydpi="96" />
    <path
       style="opacity:1;fill:#16a4ab;fill-opacity:1;stroke:none;stroke-width:0.26458332px;stroke-linecap:butt;stroke-linejoin:miter;stroke-opacity:1"
       d="m 40.623391,299.41974 c -0.07416,-0.0959 -0.173537,-0.14943 -0.276951,-0.14946 l -4.495154,-3.6e-4 c -0.219766,1.3e-4 -0.397899,0.23727 -0.397997,0.52984 -2.04e-4,0.29286 0.178012,0.53045 0.397994,0.53058 l 4.495406,-6.3e-4 c 0.219978,6e-5 0.398317,-0.23736 0.398267,-0.53021 -1.9e-4,-0.1433 -0.04395,-0.28039 -0.121315,-0.38003 z"
       id="path1377"
       inkscape:connector-curvature="0"
       sodipodi:nodetypes="ccccccccc"
       inkscape:export-filename="C:\My\Projects\Web\sibur_arenda_1.0\src\resource\img\appFormMinBtn.png"
       inkscape:export-xdpi="96"
       inkscape:export-ydpi="96" />
    <path
       inkscape:export-ydpi="96"
       inkscape:export-xdpi="96"
       inkscape:export-filename="C:\My\Projects\Web\sibur_arenda_1.0\src\resource\img\appFormMinBtnHvr.png"
       style="opacity:1;fill:#16a4ab;fill-opacity:1;stroke:none;stroke-width:0.26458332px;stroke-linecap:butt;stroke-linejoin:miter;stroke-opacity:1"
       d="m -61.407019,302.47015 c -0.07416,-0.0959 -0.173537,-0.14943 -0.276951,-0.14946 l -4.495154,-3.6e-4 c -0.219766,1.3e-4 -0.397899,0.23727 -0.397997,0.52984 -2.04e-4,0.29286 0.178012,0.53045 0.397994,0.53058 l 4.495406,-6.3e-4 c 0.219978,6e-5 0.398317,-0.23736 0.398267,-0.53021 -1.9e-4,-0.1433 -0.04395,-0.28039 -0.121315,-0.38003 z"
       id="path891"
       inkscape:connector-curvature="0"
       sodipodi:nodetypes="ccccccccc" />
    <path
       style="opacity:1;fill:#efefef;fill-opacity:1;stroke:none;stroke-width:0.13229166;stroke-linecap:round;stroke-linejoin:round;stroke-miterlimit:4;stroke-dasharray:none;stroke-dashoffset:0;stroke-opacity:1;paint-order:fill markers stroke"
       d="m 53.999706,296.84167 v 10e-4 c -0.01241,-10e-5 -0.02482,2.3e-4 -0.03721,10e-4 -0.01766,0.001 -0.03525,0.003 -0.05271,0.006 -0.01741,0.003 -0.03466,0.007 -0.05168,0.0119 -0.01697,0.005 -0.0337,0.0102 -0.05013,0.0165 -0.01654,0.006 -0.03275,0.0137 -0.04857,0.0217 -0.01576,0.008 -0.03111,0.0168 -0.04599,0.0263 -0.0148,0.01 -0.02912,0.02 -0.04289,0.031 -0.01383,0.0109 -0.02711,0.0224 -0.03979,0.0346 -0.01271,0.0125 -0.02478,0.0256 -0.03617,0.0393 -0.01137,0.0134 -0.02206,0.0274 -0.03204,0.0419 -0.01006,0.0147 -0.01937,0.0299 -0.0279,0.0455 -0.0085,0.0154 -0.01629,0.0313 -0.02325,0.0475 -0.0069,0.0162 -0.01289,0.0328 -0.01809,0.0496 -0.0052,0.017 -0.0095,0.0343 -0.01292,0.0517 -0.0035,0.0173 -0.0061,0.0347 -0.0078,0.0522 -0.0019,0.0175 -0.0029,0.0351 -0.0031,0.0527 v 0.5302 3.70159 c 9.8e-5,0.0124 6.31e-4,0.0248 0.0016,0.0372 0.0012,0.0177 0.0033,0.0352 0.0062,0.0527 0.0031,0.0174 0.0071,0.0347 0.01189,0.0517 0.0047,0.017 0.0102,0.0337 0.01654,0.0501 0.0064,0.0165 0.01366,0.0328 0.0217,0.0486 0.008,0.0158 0.01681,0.0311 0.02636,0.046 0.0096,0.0148 0.01996,0.0291 0.03101,0.0429 0.01087,0.0138 0.02243,0.0271 0.03462,0.0398 0.01231,0.0127 0.02524,0.0248 0.03876,0.0362 0.01358,0.0114 0.02773,0.022 0.04238,0.032 0.01451,0.01 0.02952,0.0193 0.04496,0.0279 0.01562,0.009 0.03166,0.0163 0.04806,0.0233 0.01623,0.007 0.03278,0.0129 0.04961,0.0181 0.017,0.005 0.03425,0.009 0.05168,0.0129 0.01725,0.004 0.03467,0.006 0.05219,0.008 0.01751,0.002 0.0351,0.003 0.05271,0.003 h 0.530199 3.171383 0.531752 c 0.01259,-2.2e-4 0.02517,-8.9e-4 0.03772,-0.002 0.01766,-10e-4 0.03525,-0.003 0.05271,-0.006 0.01741,-0.003 0.03466,-0.007 0.05168,-0.0119 0.01697,-0.005 0.0337,-0.0102 0.05012,-0.0165 0.01654,-0.006 0.03275,-0.0137 0.04857,-0.0217 0.01576,-0.008 0.03111,-0.0168 0.04599,-0.0264 0.0148,-0.01 0.02912,-0.02 0.04289,-0.031 0.01383,-0.0109 0.02711,-0.0224 0.03979,-0.0346 0.0127,-0.0123 0.02477,-0.0253 0.03617,-0.0388 0.01138,-0.0136 0.02208,-0.0277 0.03204,-0.0424 0.01006,-0.0147 0.01937,-0.0299 0.0279,-0.0455 0.0084,-0.0155 0.01595,-0.0314 0.02274,-0.0476 0.0069,-0.0162 0.01289,-0.0328 0.01809,-0.0496 0.0053,-0.017 0.0098,-0.0342 0.01344,-0.0517 0.0035,-0.0173 0.0061,-0.0347 0.0078,-0.0522 2.05e-4,-0.003 3.77e-4,-0.007 5.16e-4,-0.0103 v -0.0884 -0.48421 -3.17138 -0.52968 -5.2e-4 c 1.02e-4,-0.0124 -2.31e-4,-0.0248 -10e-4,-0.0372 -0.0014,-0.0177 -0.0036,-0.0353 -0.0067,-0.0527 -0.0029,-0.0174 -0.0067,-0.0347 -0.01137,-0.0517 -0.0047,-0.017 -0.0102,-0.0337 -0.01654,-0.0501 -0.0064,-0.0165 -0.01366,-0.0328 -0.0217,-0.0486 -0.008,-0.0158 -0.0168,-0.0311 -0.02635,-0.046 -0.0096,-0.0148 -0.01996,-0.0291 -0.03101,-0.0429 -0.01104,-0.0138 -0.02277,-0.0271 -0.03514,-0.0398 -0.01231,-0.0127 -0.02524,-0.0248 -0.03876,-0.0362 -0.01341,-0.0113 -0.02739,-0.022 -0.04186,-0.032 -0.01468,-0.0101 -0.02986,-0.0194 -0.04548,-0.0279 -0.01546,-0.008 -0.03133,-0.0159 -0.04754,-0.0227 -0.01622,-0.007 -0.03277,-0.0132 -0.04961,-0.0186 -0.017,-0.005 -0.03425,-0.009 -0.05168,-0.0129 -0.01725,-0.004 -0.03467,-0.006 -0.05219,-0.008 -0.01768,-0.002 -0.03545,-0.003 -0.05323,-0.003 h -0.529685 -3.701066 -5.16e-4 z m 0.530199,1.06092 h 3.171383 v 3.17138 h -0.698787 c 0.150854,-0.39078 -0.04547,-0.62885 -0.102878,-0.76839 0.09355,0.045 0.286694,0.20287 0.325723,0.32759 -0.0013,-1.04762 -1.420204,-1.88105 -1.774569,-1.96835 0.06415,0.18078 0.23408,0.76003 0.01191,1.41219 0.121854,-0.011 0.348307,-0.0135 0.359647,0.0285 0.13517,0.5002 -0.630021,0.76553 -1.292429,0.96841 z"
       id="path951"
       inkscape:connector-curvature="0"
       inkscape:export-filename="C:\My\Projects\Web\sibur_arenda_1.0\src\resource\img\expandAppFormBtn.png"
       inkscape:export-xdpi="96"
       inkscape:export-ydpi="96"
       sodipodi:nodetypes="ccccccccccccccccccccccccccccccccccccccccccccccccccccccccccccccccccccccccccccccccccccccccccc" />
    <rect
       style="opacity:1;fill:none;fill-opacity:1;stroke:#000000;stroke-width:0.26458332;stroke-linecap:round;stroke-linejoin:miter;stroke-miterlimit:4;stroke-dasharray:none;stroke-dashoffset:0;stroke-opacity:1;paint-order:fill markers stroke"
       id="rect835"
       width="5.285255"
       height="5.285255"
       x="-63.759178"
       y="311.36069" />
    <path
       style="fill:none;stroke:#efefef;stroke-width:0.5291667;stroke-linecap:butt;stroke-linejoin:miter;stroke-miterlimit:4;stroke-dasharray:none;stroke-opacity:1"
       d="m 40.067321,304.03561 0.963338,0.7736 1.151184,-1.58863"
       id="path837"
       inkscape:connector-curvature="0"
       sodipodi:nodetypes="ccc"
       inkscape:export-filename="C:\My\Projects\Web\sibur_arenda_1.0\src\resource\img\tick.png"
       inkscape:export-xdpi="96"
       inkscape:export-ydpi="96" />
    <path
       sodipodi:nodetypes="ccc"
       inkscape:connector-curvature="0"
       id="path839"
       d="m 45.366304,306.51737 0.963338,0.7736 1.151184,-1.58863"
       style="fill:none;stroke:#16a4ab;stroke-width:0.5291667;stroke-linecap:butt;stroke-linejoin:miter;stroke-miterlimit:4;stroke-dasharray:none;stroke-opacity:1"
       inkscape:export-filename="C:\My\Projects\Web\sibur_arenda_1.0\src\resource\img\tickHvr.png"
       inkscape:export-xdpi="96"
       inkscape:export-ydpi="96" />
    <path
       style="opacity:1;fill:#16a4ab;fill-opacity:1;stroke:none;stroke-width:0.66145837;stroke-linecap:butt;stroke-miterlimit:4;stroke-dasharray:none;stroke-dashoffset:0;stroke-opacity:1;paint-order:fill markers stroke"
       d="m 56.397018,289.11621 a 0.53007926,0.53007926 0 0 0 -0.366895,0.15502 0.53007926,0.53007926 0 0 0 0,0.74981 l 1.741459,1.74044 -1.740428,1.74145 a 0.53007926,0.53007926 0 0 0 0,0.74929 0.53007926,0.53007926 0 0 0 0.749813,5.2e-4 l 1.740424,-1.74093 -5.29e-4,-5.2e-4 h 5.29e-4 v 5.2e-4 l 1.73991,1.74093 a 0.53007926,0.53007926 0 0 0 0.74981,-5.2e-4 0.53007926,0.53007926 0 0 0 0,-0.74929 l -1.740428,-1.74145 1.74146,-1.74044 a 0.53007926,0.53007926 0 0 0 0,-0.74981 0.53007926,0.53007926 0 0 0 -0.749293,5.4e-4 l -1.741459,1.74043 h -5.29e-4 l -1.740943,-1.74043 a 0.53007926,0.53007926 0 0 0 -0.382914,-0.15556 z"
       id="path1964"
       inkscape:connector-curvature="0"
       inkscape:export-filename="C:\My\Projects\Web\sibur_arenda_1.0\src\resource\img\removeRoomBtnHover.png"
       inkscape:export-xdpi="96"
       inkscape:export-ydpi="96" />
    <path
       sodipodi:nodetypes="ccccccccccccccccccccccccccccccccccccccccccccccccccccccccccccccccccccccccccccccccccccccccccc"
       inkscape:export-ydpi="96"
       inkscape:export-xdpi="96"
       inkscape:export-filename="C:\My\Projects\Web\sibur_arenda_1.0\src\resource\img\expandAppFormBtn.png"
       inkscape:connector-curvature="0"
       id="path1966"
       d="m 31.63432,290.23971 v 10e-4 c -0.01241,-10e-5 -0.02482,2.3e-4 -0.03721,0.001 -0.01766,10e-4 -0.03525,0.003 -0.05271,0.006 -0.01741,0.003 -0.03466,0.007 -0.05168,0.0119 -0.01697,0.005 -0.0337,0.0102 -0.05013,0.0165 -0.01654,0.006 -0.03275,0.0137 -0.04857,0.0217 -0.01576,0.008 -0.03111,0.0168 -0.04599,0.0263 -0.0148,0.01 -0.02912,0.02 -0.04289,0.031 -0.01383,0.0109 -0.02711,0.0224 -0.03979,0.0346 -0.01271,0.0125 -0.02478,0.0256 -0.03617,0.0393 -0.01137,0.0134 -0.02206,0.0274 -0.03204,0.0419 -0.01006,0.0147 -0.01937,0.0299 -0.0279,0.0455 -0.0085,0.0154 -0.01629,0.0313 -0.02325,0.0475 -0.0069,0.0162 -0.01289,0.0328 -0.01809,0.0496 -0.0052,0.017 -0.0095,0.0343 -0.01292,0.0517 -0.0035,0.0173 -0.0061,0.0347 -0.0078,0.0522 -0.0019,0.0175 -0.0029,0.0351 -0.0031,0.0527 v 0.5302 3.70159 c 9.8e-5,0.0124 6.31e-4,0.0248 0.0016,0.0372 0.0012,0.0177 0.0033,0.0352 0.0062,0.0527 0.0031,0.0174 0.0071,0.0347 0.01189,0.0517 0.0047,0.017 0.0102,0.0337 0.01654,0.0501 0.0064,0.0165 0.01366,0.0328 0.0217,0.0486 0.008,0.0158 0.01681,0.0311 0.02636,0.046 0.0096,0.0148 0.01996,0.0291 0.03101,0.0429 0.01087,0.0138 0.02243,0.0271 0.03462,0.0398 0.01231,0.0127 0.02524,0.0248 0.03876,0.0362 0.01358,0.0114 0.02773,0.022 0.04238,0.032 0.01451,0.01 0.02952,0.0193 0.04496,0.0279 0.01562,0.009 0.03166,0.0163 0.04806,0.0233 0.01623,0.007 0.03278,0.0129 0.04961,0.0181 0.017,0.005 0.03425,0.009 0.05168,0.0129 0.01725,0.004 0.03467,0.006 0.05219,0.008 0.01751,0.002 0.0351,0.003 0.05271,0.003 h 0.530199 3.171383 0.531752 c 0.01259,-2.2e-4 0.02517,-8.9e-4 0.03772,-0.002 0.01766,-0.001 0.03525,-0.003 0.05271,-0.006 0.01741,-0.003 0.03466,-0.007 0.05168,-0.0119 0.01697,-0.005 0.0337,-0.0102 0.05012,-0.0165 0.01654,-0.006 0.03275,-0.0137 0.04857,-0.0217 0.01576,-0.008 0.03111,-0.0168 0.04599,-0.0264 0.0148,-0.01 0.02912,-0.02 0.04289,-0.031 0.01383,-0.0109 0.02711,-0.0224 0.03979,-0.0346 0.0127,-0.0123 0.02477,-0.0253 0.03617,-0.0388 0.01138,-0.0136 0.02208,-0.0277 0.03204,-0.0424 0.01006,-0.0147 0.01937,-0.0299 0.0279,-0.0455 0.0084,-0.0155 0.01595,-0.0314 0.02274,-0.0476 0.0069,-0.0162 0.01289,-0.0328 0.01809,-0.0496 0.0053,-0.017 0.0098,-0.0342 0.01344,-0.0517 0.0035,-0.0173 0.0061,-0.0347 0.0078,-0.0522 2.05e-4,-0.003 3.77e-4,-0.007 5.16e-4,-0.0103 v -0.0884 -0.48421 -3.17138 -0.52968 -5.2e-4 c 1.02e-4,-0.0124 -2.31e-4,-0.0248 -0.001,-0.0372 -0.0014,-0.0177 -0.0036,-0.0353 -0.0067,-0.0527 -0.0029,-0.0174 -0.0067,-0.0347 -0.01137,-0.0517 -0.0047,-0.017 -0.0102,-0.0337 -0.01654,-0.0501 -0.0064,-0.0165 -0.01366,-0.0328 -0.0217,-0.0486 -0.008,-0.0158 -0.0168,-0.0311 -0.02635,-0.046 -0.0096,-0.0148 -0.01996,-0.0291 -0.03101,-0.0429 -0.01104,-0.0138 -0.02277,-0.0271 -0.03514,-0.0398 -0.01231,-0.0127 -0.02524,-0.0248 -0.03876,-0.0362 -0.01341,-0.0113 -0.02739,-0.022 -0.04186,-0.032 -0.01468,-0.0101 -0.02986,-0.0194 -0.04548,-0.0279 -0.01546,-0.008 -0.03133,-0.0159 -0.04754,-0.0227 -0.01622,-0.007 -0.03277,-0.0132 -0.04961,-0.0186 -0.017,-0.005 -0.03425,-0.009 -0.05168,-0.0129 -0.01725,-0.004 -0.03467,-0.006 -0.05219,-0.008 -0.01768,-0.002 -0.03545,-0.003 -0.05323,-0.003 h -0.529685 -3.701066 -5.16e-4 z m 0.530199,1.06092 h 3.171383 v 3.17138 h -0.698787 c 0.150854,-0.39078 -0.04547,-0.62885 -0.102878,-0.76839 0.09355,0.045 0.286694,0.20287 0.325723,0.32759 -0.0013,-1.04762 -1.420204,-1.88105 -1.774569,-1.96835 0.06415,0.18078 0.23408,0.76003 0.01191,1.41219 0.121854,-0.011 0.348307,-0.0135 0.359647,0.0285 0.13517,0.5002 -0.630021,0.76553 -1.292429,0.96841 z"
       style="opacity:1;fill:#16a4ab;fill-opacity:1;stroke:none;stroke-width:0.13229166;stroke-linecap:round;stroke-linejoin:round;stroke-miterlimit:4;stroke-dasharray:none;stroke-dashoffset:0;stroke-opacity:1;paint-order:fill markers stroke" />
    <path
       inkscape:export-filename="C:\My\Projects\Web\sibur_arenda_1.0\src\resource\img\prevMonthIcon.png"
       style="opacity:1;fill:#efefef;fill-opacity:1;stroke:none;stroke-width:0.66145831;stroke-linecap:butt;stroke-miterlimit:4;stroke-dasharray:none;stroke-dashoffset:0;stroke-opacity:1;paint-order:fill markers stroke"
       d="m 66.373994,312.88161 a 0.53009016,0.53009016 0 0 1 -0.74967,1.8e-4 l -1.740506,-1.74129 -0.749486,-0.74987 0.749834,-0.74947 1.741318,-1.74051 a 0.53009016,0.53009016 0 0 1 0.749668,-1.8e-4 0.53009016,0.53009016 0 0 1 -2.23e-4,0.74965 l -1.741317,1.74051 1.740506,1.74132 a 0.53009016,0.53009016 0 0 1 -2.22e-4,0.74966 z"
       id="path835"
       inkscape:connector-curvature="0"
       inkscape:transform-center-x="-1.6979872"
       inkscape:transform-center-y="0.00050175847"
       inkscape:export-xdpi="96"
       inkscape:export-ydpi="96" />
    <circle
       style="opacity:1;fill:#16a4ab;fill-opacity:1;stroke:none;stroke-width:0.52916664;stroke-linecap:round;stroke-linejoin:miter;stroke-miterlimit:4;stroke-dasharray:none;stroke-dashoffset:0;stroke-opacity:1;paint-order:fill markers stroke"
       id="path836"
       cx="28.279734"
       cy="299.26251"
       r="1.0583333" />
    <path
       style="fill:#ff0000;stroke:none;stroke-width:0.26458332px;stroke-linecap:butt;stroke-linejoin:miter;stroke-opacity:1"
       d="m 56.411164,308.74935 a 0.3693981,0.3693981 0 0 0 -0.03721,0.002 0.3693981,0.3693981 0 0 0 -0.03617,0.006 0.3693981,0.3693981 0 0 0 -0.03617,0.009 0.3693981,0.3693981 0 0 0 -0.03462,0.0124 0.3693981,0.3693981 0 0 0 -0.03307,0.016 0.3693981,0.3693981 0 0 0 -0.03152,0.0196 0.3693981,0.3693981 0 0 0 -0.02946,0.0222 0.3693981,0.3693981 0 0 0 -0.02687,0.0253 0.3693981,0.3693981 0 0 0 -0.02429,0.0279 0.3693981,0.3693981 0 0 0 -0.02119,0.03 l -0.01757,0.03 -1.593184,2.75952 c -0.07435,0.1161 -0.07775,0.26403 -0.0088,0.38344 0.0691,0.11933 0.198677,0.19052 0.336413,0.18397 h 3.184819 c 0.137824,0.007 0.269853,-0.0646 0.338998,-0.18397 0.0691,-0.11965 0.06539,-0.26823 -0.0093,-0.38447 l -1.592668,-2.75849 -0.0186,-0.032 a 0.3693981,0.3693981 0 0 0 -0.0217,-0.03 0.3693981,0.3693981 0 0 0 -0.02429,-0.0279 0.3693981,0.3693981 0 0 0 -0.02739,-0.0248 0.3693981,0.3693981 0 0 0 -0.02946,-0.0222 0.3693981,0.3693981 0 0 0 -0.03152,-0.0191 0.3693981,0.3693981 0 0 0 -0.03307,-0.016 0.3693981,0.3693981 0 0 0 -0.03514,-0.0124 0.3693981,0.3693981 0 0 0 -0.03566,-0.009 0.3693981,0.3693981 0 0 0 -0.03669,-0.005 0.3693981,0.3693981 0 0 0 -0.03462,-0.002 z"
       id="path874"
       inkscape:connector-curvature="0" />
    <g
       id="g920"
       transform="matrix(0.54009254,0,0,0.54009254,53.214869,150.62996)"
       style="fill:#ffffff;stroke-width:1.85153449">
      <path
         id="path905"
         transform="matrix(0.26458333,0,0,0.26458333,0,292.50208)"
         d="m 22.367188,7.7265625 c -1.181537,0.044511 -2.127617,1.0105467 -2.126954,2.203125 0.263895,3.5854345 0.968763,6.2948755 1.5625,8.5332035 0.04503,0.169752 0.09898,0.246544 0.203125,0.357421 0.01707,0.01818 0.04103,0.02833 0.0625,0.04102 0.02157,0.01275 0.04374,0.02445 0.06641,0.03516 0.02297,0.01085 0.04627,0.02109 0.07031,0.0293 0.02363,0.0081 0.04792,0.014 0.07227,0.01953 0.02455,0.0056 0.04926,0.01043 0.07422,0.01367 0.0052,6.8e-4 0.01041,0.0014 0.01563,0.002 0.0053,-6.05e-4 0.01041,-0.0013 0.01562,-0.002 0.02496,-0.0038 0.04965,-0.0099 0.07422,-0.01367 0.02435,-0.0038 0.04864,-0.01197 0.07227,-0.01953 0.02404,-0.0076 0.04733,-0.01796 0.07031,-0.0293 0.02267,-0.01134 0.04483,-0.02382 0.06641,-0.03516 0.02147,-0.01474 0.04542,-0.02212 0.0625,-0.04102 0.104145,-0.111118 0.158095,-0.187721 0.203125,-0.357421 0.593737,-2.238312 1.298605,-4.947755 1.5625,-8.5332035 6.63e-4,-1.1925921 -0.945416,-2.1585266 -2.126953,-2.203125 z"
         style="opacity:1;fill:#ffffff;fill-opacity:1;stroke:none;stroke-width:3.70306897;stroke-linecap:round;stroke-linejoin:miter;stroke-miterlimit:4;stroke-dasharray:none;stroke-dashoffset:0;stroke-opacity:1;paint-order:fill markers stroke"
         inkscape:connector-curvature="0" />
      <circle
         r="0.3175"
         cy="297.92987"
         cx="5.917985"
         id="path915"
         style="opacity:1;fill:#ffffff;fill-opacity:1;stroke:none;stroke-width:0.9797703;stroke-linecap:round;stroke-linejoin:miter;stroke-miterlimit:4;stroke-dasharray:none;stroke-dashoffset:0;stroke-opacity:1;paint-order:fill markers stroke" />
    </g>
    <circle
       style="opacity:1;fill:#16a4ab;fill-opacity:1;stroke:none;stroke-width:0.52916658;stroke-linecap:round;stroke-linejoin:miter;stroke-miterlimit:4;stroke-dasharray:none;stroke-dashoffset:0;stroke-opacity:1;paint-order:fill markers stroke"
       id="path842"
       cx="71.25396"
       cy="300.58151"
       r="1.8520833" />
    <path
       inkscape:connector-curvature="0"
       style="opacity:1;fill:#efefef;fill-opacity:1;stroke:none;stroke-width:0.52916664;stroke-linecap:round;stroke-linejoin:miter;stroke-miterlimit:4;stroke-dasharray:none;stroke-dashoffset:0;stroke-opacity:1;paint-order:fill markers stroke"
       d="m 70.891446,300.1293 v 0.19896 h 0.09819 v 1.50171 h -0.09819 v 0.19896 h 0.09819 0.529167 0.09767 v -0.19896 h -0.09767 v -1.50171 h 0.09767 v -0.19896 h -0.09767 -0.529166 z"
       id="rect861" />
    <circle
       style="opacity:1;fill:#efefef;fill-opacity:1;stroke:none;stroke-width:0.52916658;stroke-linecap:round;stroke-linejoin:miter;stroke-miterlimit:4;stroke-dasharray:none;stroke-dashoffset:0;stroke-opacity:1;paint-order:fill markers stroke"
       id="path863"
       cx="71.254036"
       cy="299.46484"
       r="0.33072916" />
    <path
       style="fill:none;stroke:#efefef;stroke-width:0.21166666;stroke-linecap:butt;stroke-linejoin:miter;stroke-miterlimit:4;stroke-dasharray:none;stroke-opacity:1"
       d="m 9.0042527,293.19992 h 0.6712478 v 1.66016"
       id="path941"
       inkscape:connector-curvature="0"
       sodipodi:nodetypes="ccc" />
    <text
       xml:space="preserve"
       style="font-style:normal;font-weight:normal;font-size:2.42324471px;line-height:1.25;font-family:sans-serif;letter-spacing:0px;word-spacing:0px;fill:#efefef;fill-opacity:1;stroke:none;stroke-width:0.26458332"
       x="10.178673"
       y="296.72665"
       id="text947"><tspan
         sodipodi:role="line"
         id="tspan945"
         x="10.178673"
         y="296.72665"
         style="fill:#efefef;fill-opacity:1;stroke-width:0.26458332">2</tspan></text>
    <path
       style="fill:none;stroke:#efefef;stroke-width:0.21166666;stroke-linecap:butt;stroke-linejoin:miter;stroke-miterlimit:4;stroke-dasharray:none;stroke-opacity:1"
       d="m 9.0493765,295.79425 2.4273445,-1.76772"
       id="path949"
       inkscape:connector-curvature="0"
       sodipodi:nodetypes="cc" />
  </g>
</svg>
