<?xml version="1.0" encoding="UTF-8" standalone="no"?>
<!-- Created with Inkscape (http://www.inkscape.org/) -->

<svg
   xmlns:dc="http://purl.org/dc/elements/1.1/"
   xmlns:cc="http://creativecommons.org/ns#"
   xmlns:rdf="http://www.w3.org/1999/02/22-rdf-syntax-ns#"
   xmlns:svg="http://www.w3.org/2000/svg"
   xmlns="http://www.w3.org/2000/svg"
   xmlns:sodipodi="http://sodipodi.sourceforge.net/DTD/sodipodi-0.dtd"
   xmlns:inkscape="http://www.inkscape.org/namespaces/inkscape"
   width="28"
   height="28"
   viewBox="0 0 7.4083331 7.4083334"
   version="1.1"
   id="svg8"
   inkscape:version="0.92.4 (5da689c313, 2019-01-14)"
   sodipodi:docname="halfFieldHvr.svg">
  <defs
     id="defs2" />
  <sodipodi:namedview
     id="base"
     pagecolor="#ffffff"
     bordercolor="#666666"
     borderopacity="1.0"
     inkscape:pageopacity="0.0"
     inkscape:pageshadow="2"
     inkscape:zoom="11.313708"
     inkscape:cx="5.0987289"
     inkscape:cy="5.6955036"
     inkscape:document-units="mm"
     inkscape:current-layer="layer1"
     showgrid="false"
     showguides="true"
     inkscape:object-paths="true"
     inkscape:snap-smooth-nodes="true"
     inkscape:snap-intersection-paths="true"
     inkscape:snap-center="true"
     inkscape:window-width="1920"
     inkscape:window-height="1001"
     inkscape:window-x="-9"
     inkscape:window-y="-9"
     inkscape:window-maximized="1"
     inkscape:snap-global="true"
     inkscape:snap-bbox="true"
     inkscape:bbox-paths="true"
     inkscape:snap-bbox-edge-midpoints="true"
     inkscape:snap-bbox-midpoints="true"
     inkscape:bbox-nodes="true"
     units="px"
     inkscape:showpageshadow="false"
     inkscape:snap-page="true"
     inkscape:snap-object-midpoints="true"
     inkscape:snap-nodes="true"
     inkscape:snap-midpoints="true" />
  <metadata
     id="metadata5">
    <rdf:RDF>
      <cc:Work
         rdf:about="">
        <dc:format>image/svg+xml</dc:format>
        <dc:type
           rdf:resource="http://purl.org/dc/dcmitype/StillImage" />
        <dc:title></dc:title>
      </cc:Work>
    </rdf:RDF>
  </metadata>
  <g
     inkscape:label="Layer 1"
     inkscape:groupmode="layer"
     id="layer1"
     transform="translate(0,-289.59166)">
    <rect
       style="opacity:1;fill:none;fill-opacity:1;stroke:none;stroke-width:0.21166666;stroke-linecap:round;stroke-linejoin:miter;stroke-miterlimit:4;stroke-dasharray:none;stroke-dashoffset:0;stroke-opacity:1;paint-order:fill markers stroke"
       id="rect992"
       width="7.4083333"
       height="7.4083385"
       x="0"
       y="289.59167" />
    <path
       style="opacity:1;fill:#da6509;fill-opacity:1;stroke:none;stroke-width:0.52916658;stroke-linecap:round;stroke-linejoin:miter;stroke-miterlimit:4;stroke-dasharray:none;stroke-dashoffset:0;stroke-opacity:1;paint-order:fill markers stroke"
       d="m 3.6764251,290.35753 -0.121051,0.0872 c 0.4538118,0.63246 0.2643803,1.36259 -0.3001106,1.86249 -0.031024,0.0666 -0.072541,0.12838 -0.136185,0.17396 -0.064225,0.0461 -0.1369088,0.0666 -0.2105827,0.0745 -0.6532599,0.37159 -1.4034644,0.31689 -1.8561457,-0.31401 l -0.12231396,0.0872 1.40850246,1.96334 -0.052961,-0.078 0.7641469,-0.54724 c -0.1897594,-0.33495 -0.1119314,-0.76153 0.2080594,-0.99113 0.31976,-0.22937 0.75173,-0.16892 1.0087752,0.11746 l 0.7641483,-0.54744 z m -0.1777981,0.12754 -0.725057,0.52075 0.035307,-0.0126 0.050439,0.12502 -0.064309,0.0279 -0.050439,-0.11746 -0.8826779,0.63301 0.095834,0.0858 -0.047915,0.0519 -0.100877,-0.0883 0.023962,-0.0279 -0.723796,0.51952 c 0.4081908,0.56879 1.0654433,0.64422 1.6619567,0.35182 -0.1050574,-0.0218 -0.2026962,-0.0778 -0.2698472,-0.17155 -0.022107,-0.0307 -0.032239,-0.0655 -0.045394,-0.0995 l -0.01764,-0.0126 0.00756,-0.01 c -0.00946,-0.0291 -0.01568,-0.0571 -0.018901,-0.0872 l -0.040354,0.0465 -0.1059198,-0.0931 0.045394,-0.0531 0.100877,0.0883 c -0.012502,-0.15026 0.044255,-0.30438 0.1752724,-0.39845 0.1318478,-0.0946 0.2972441,-0.0991 0.4362955,-0.0379 l -0.052961,-0.12614 0.06557,-0.0252 0.055483,0.12866 -0.060529,0.0252 c 0.026999,0.0112 0.05138,0.0274 0.075657,0.0454 l 0.012614,-0.004 0.011326,0.0267 c 0.026134,0.0218 0.054727,0.0414 0.075657,0.0704 0.067409,0.0939 0.090206,0.20595 0.07692,0.31273 0.4703396,-0.47157 0.6095321,-1.12087 0.2004952,-1.6909 z m -0.6128308,0.69603 0.055483,0.12866 -0.064309,0.0291 -0.055483,-0.12992 z m 0.083223,0.19425 0.054221,0.12992 -0.063049,0.0279 -0.055483,-0.12992 z m -0.9583361,0.41613 0.1059198,0.092 -0.047915,0.0531 -0.1046598,-0.0931 z m 0.8952878,0.0519 c -0.070771,-0.0112 -0.1456708,0.004 -0.209321,0.0505 -0.1273006,0.0913 -0.155652,0.26476 -0.064309,0.39214 0.091342,0.12726 0.26486,0.15568 0.3921613,0.0644 0.1273006,-0.0913 0.15565,-0.26483 0.064309,-0.39219 -0.045669,-0.0634 -0.1120714,-0.10318 -0.18284,-0.11466 z m -0.7376667,0.0883 0.1046598,0.0931 -0.046655,0.0519 -0.1059198,-0.0931 z m 2.9557111,0.44385 -0.7641473,0.54851 c 0.187859,0.33538 0.1099126,0.76588 -0.2093212,0.99492 -0.3190678,0.2289 -0.7491124,0.16296 -1.0062533,-0.12222 l -0.7666689,0.5498 1.3542802,1.8877 0.1223152,-0.0883 H 3.85296 c -0.45362,-0.6322 -0.2638842,-1.36255 0.3001103,-1.86249 0.031053,-0.0657 0.073322,-0.12642 0.1361864,-0.17154 0.062758,-0.0452 0.1336006,-0.0645 0.2055389,-0.0732 0.2972824,-0.17042 0.6144561,-0.25746 0.9154629,-0.23573 0.3618618,0.0259 0.6990686,0.20066 0.9469875,0.546 v 0.001 l 0.121051,-0.0869 z m -1.3214957,0.32407 c -0.1521092,-0.0245 -0.3142601,0.0112 -0.4501656,0.1071 -0.2490514,0.17864 -0.3131676,0.50504 -0.1740144,0.76793 l 0.9570755,-0.68731 c -0.09288,-0.098 -0.2063344,-0.16782 -0.332896,-0.18783 z m 0.4262073,0.31902 -0.9570753,0.68597 c 0.205063,0.21474 0.536004,0.26007 0.784323,0.0819 0.2480378,-0.17771 0.310007,-0.50498 0.1727523,-0.76792 z m 1.0856945,0.85116 c -0.2253261,-4e-5 -0.457911,0.0592 -0.6821843,0.17042 0.1070118,0.0218 0.2066467,0.079 0.2748911,0.17398 0.020131,0.028 0.027657,0.0603 0.040352,0.0907 l 0.023962,0.0202 -0.01008,0.0112 c 0.0092,0.0281 0.015568,0.0554 0.018904,0.0846 l 0.042874,-0.0477 0.1046584,0.0931 -0.045394,0.0531 -0.1021384,-0.0896 c 0.014354,0.15212 -0.041524,0.30719 -0.1740144,0.40228 -0.1315034,0.0946 -0.2961981,0.0986 -0.4350339,0.0379 l 0.051699,0.12334 -0.065572,0.0252 -0.054223,-0.12866 0.058003,-0.0245 c -0.027324,-0.0112 -0.05241,-0.027 -0.076917,-0.0454 l -0.01008,0.004 -0.01008,-0.0245 c -0.026561,-0.0218 -0.055698,-0.041 -0.076922,-0.0704 -0.067672,-0.0945 -0.090559,-0.20666 -0.076922,-0.31397 -0.4688497,0.47148 -0.607701,1.11916 -0.1992331,1.68843 l 0.7527982,-0.54093 -0.029002,0.0202 -0.034048,0.0126 -0.051699,-0.12502 0.064309,-0.0279 0.050439,0.11746 0.8826787,-0.63303 -0.094573,-0.0857 0.046655,-0.0519 0.1021384,0.0883 -0.025218,0.0279 0.7250562,-0.51952 C 6.0444773,294.03188 5.6899486,293.868 5.3144038,293.86791 Z m -0.7212745,0.32406 c -0.070769,-0.0112 -0.145669,0.004 -0.209321,0.0505 -0.1273006,0.0913 -0.156912,0.26484 -0.06557,0.39215 0.09134,0.12754 0.2661209,0.15568 0.3934221,0.0644 0.1273006,-0.0913 0.1556502,-0.26485 0.064309,-0.39215 -0.045669,-0.0634 -0.1120728,-0.10318 -0.18284,-0.11466 z m 0.5901337,0.32029 0.1046584,0.0931 -0.046655,0.0519 -0.1059198,-0.0931 z m 0.1563596,0.14 0.1059198,0.0946 -0.046655,0.0505 -0.1059226,-0.092 z m -0.8902439,0.40352 0.055481,0.12992 -0.065572,0.0279 -0.054219,-0.12992 z m 0.083223,0.19427 0.054221,0.12992 -0.064309,0.0291 -0.054221,-0.12992 z"
       id="rect846"
       inkscape:connector-curvature="0" />
    <rect
       style="opacity:1;fill:none;fill-opacity:1;stroke:none;stroke-width:0.52916664;stroke-linecap:round;stroke-linejoin:miter;stroke-miterlimit:4;stroke-dasharray:none;stroke-dashoffset:0;stroke-opacity:1;paint-order:fill markers stroke"
       id="rect890"
       width="4.4979167"
       height="4.4979167"
       x="54.16217"
       y="308.26428" />
    <rect
       style="opacity:1;fill:none;fill-opacity:1;stroke:#ff00ff;stroke-width:0.13229166;stroke-linecap:butt;stroke-miterlimit:4;stroke-dasharray:none;stroke-dashoffset:0;stroke-opacity:1;paint-order:fill markers stroke"
       id="rect1382"
       width="5.2916665"
       height="5.2916665"
       x="-84.005135"
       y="305.27957"
       inkscape:export-filename="C:\My\Projects\Web\sibur_arenda_1.0\src\resource\img\appFormMinBtn.png"
       inkscape:export-xdpi="96"
       inkscape:export-ydpi="96" />
    <path
       style="opacity:1;fill:#efefef;fill-opacity:1;stroke:none;stroke-width:0.66145831;stroke-linecap:butt;stroke-miterlimit:4;stroke-dasharray:none;stroke-dashoffset:0;stroke-opacity:1;paint-order:fill markers stroke"
       d="m 40.785502,298.08892 a 0.53009016,0.53009016 0 0 0 0.74967,1.8e-4 l 1.740506,-1.74129 0.749486,-0.74987 -0.749834,-0.74947 -1.741318,-1.74051 a 0.53009016,0.53009016 0 0 0 -0.749668,-1.8e-4 0.53009016,0.53009016 0 0 0 2.23e-4,0.74965 l 1.741317,1.74051 -1.740506,1.74132 a 0.53009016,0.53009016 0 0 0 2.22e-4,0.74966 z"
       id="rect831"
       inkscape:connector-curvature="0"
       inkscape:transform-center-x="1.6979872"
       inkscape:transform-center-y="0.00050175847"
       inkscape:export-xdpi="96"
       inkscape:export-ydpi="96"
       inkscape:export-filename="C:\My\Projects\Web\sibur_arenda_1.0\src\resource\img\nextMonthIcon.png" />
    <path
       inkscape:export-ydpi="96"
       inkscape:export-xdpi="96"
       inkscape:transform-center-y="-1.2734895"
       inkscape:transform-center-x="-0.00037595099"
       inkscape:connector-curvature="0"
       id="path829"
       d="m 50.335341,290.89732 a 0.39756745,0.39756745 0 0 1 1.35e-4,0.56225 l -1.305967,1.30538 -0.562403,0.56211 -0.562102,-0.56237 -1.305382,-1.30599 a 0.39756745,0.39756745 0 0 1 -1.35e-4,-0.56225 0.39756745,0.39756745 0 0 1 0.562238,1.7e-4 l 1.305381,1.30598 1.30599,-1.30537 a 0.39756745,0.39756745 0 0 1 0.562245,1.6e-4 z"
       style="opacity:1;fill:#16a4ab;fill-opacity:1;stroke:none;stroke-width:0.66145831;stroke-linecap:butt;stroke-miterlimit:4;stroke-dasharray:none;stroke-dashoffset:0;stroke-opacity:1;paint-order:fill markers stroke"
       inkscape:export-filename="C:\My\Projects\Web\sibur_arenda_1.0\src\resource\img\prevMonthIcon.png" />
    <path
       style="opacity:1;fill:#da6509;fill-opacity:1;stroke:none;stroke-width:0.66145837;stroke-linecap:butt;stroke-miterlimit:4;stroke-dasharray:none;stroke-dashoffset:0;stroke-opacity:1;paint-order:fill markers stroke"
       d="m 29.858159,306.31457 a 0.39755972,0.39755972 0 0 0 -0.275171,0.11626 0.39755972,0.39755972 0 0 0 0,0.56236 l 1.306095,1.30533 -1.305322,1.30609 a 0.39755972,0.39755972 0 0 0 0,0.56197 0.39755972,0.39755972 0 0 0 0.56236,3.9e-4 l 1.305319,-1.3057 -3.97e-4,-3.9e-4 h 3.97e-4 v 3.9e-4 l 1.304933,1.3057 a 0.39755972,0.39755972 0 0 0 0.562358,-3.9e-4 0.39755972,0.39755972 0 0 0 0,-0.56197 l -1.305322,-1.30609 1.306096,-1.30533 a 0.39755972,0.39755972 0 0 0 0,-0.56236 0.39755972,0.39755972 0 0 0 -0.56197,4.1e-4 l -1.306095,1.30532 h -3.97e-4 l -1.305708,-1.30532 a 0.39755972,0.39755972 0 0 0 -0.287186,-0.11667 z"
       id="path822"
       inkscape:connector-curvature="0"
       inkscape:export-filename="C:\My\Projects\Web\sibur_arenda_1.0\src\resource\img\removeRoomBtn.png"
       inkscape:export-xdpi="96"
       inkscape:export-ydpi="96" />
    <path
       inkscape:export-ydpi="96"
       inkscape:export-xdpi="96"
       inkscape:export-filename="C:\My\Projects\Web\sibur_arenda_1.0\src\resource\img\removeRoomBtnHover.png"
       inkscape:connector-curvature="0"
       id="path823"
       d="m 45.385029,279.7235 a 0.53007926,0.53007926 0 0 0 -0.366895,0.15502 0.53007926,0.53007926 0 0 0 0,0.74981 l 1.741459,1.74044 -1.740428,1.74145 a 0.53007926,0.53007926 0 0 0 0,0.74929 0.53007926,0.53007926 0 0 0 0.749813,5.2e-4 l 1.740424,-1.74093 -5.29e-4,-5.2e-4 h 5.29e-4 v 5.2e-4 l 1.73991,1.74093 a 0.53007926,0.53007926 0 0 0 0.74981,-5.2e-4 0.53007926,0.53007926 0 0 0 0,-0.74929 l -1.740428,-1.74145 1.74146,-1.74044 a 0.53007926,0.53007926 0 0 0 0,-0.74981 0.53007926,0.53007926 0 0 0 -0.749293,5.4e-4 l -1.741459,1.74043 h -5.29e-4 l -1.740943,-1.74043 a 0.53007926,0.53007926 0 0 0 -0.382914,-0.15556 z"
       style="opacity:1;fill:#efefef;fill-opacity:1;stroke:none;stroke-width:0.66145837;stroke-linecap:butt;stroke-miterlimit:4;stroke-dasharray:none;stroke-dashoffset:0;stroke-opacity:1;paint-order:fill markers stroke" />
    <path
       inkscape:export-filename="C:\My\Projects\Web\sibur_arenda_1.0\src\resource\img\nextMonthIconHover.png"
       inkscape:export-ydpi="96"
       inkscape:export-xdpi="96"
       inkscape:transform-center-y="0.00050175847"
       inkscape:transform-center-x="1.6979872"
       inkscape:connector-curvature="0"
       id="path825"
       d="m 20.040982,312.56294 a 0.53009016,0.53009016 0 0 0 0.74967,1.8e-4 l 1.740506,-1.74129 0.749486,-0.74987 -0.749834,-0.74947 -1.741318,-1.74051 a 0.53009016,0.53009016 0 0 0 -0.749668,-1.8e-4 0.53009016,0.53009016 0 0 0 2.23e-4,0.74965 l 1.741317,1.74051 -1.740506,1.74132 a 0.53009016,0.53009016 0 0 0 2.22e-4,0.74966 z"
       style="opacity:1;fill:#16a4ab;fill-opacity:1;stroke:none;stroke-width:0.66145831;stroke-linecap:butt;stroke-miterlimit:4;stroke-dasharray:none;stroke-dashoffset:0;stroke-opacity:1;paint-order:fill markers stroke" />
    <path
       inkscape:export-filename="C:\My\Projects\Web\sibur_arenda_1.0\src\resource\img\prevMonthIconHover.png"
       style="opacity:1;fill:#16a4ab;fill-opacity:1;stroke:none;stroke-width:0.66145831;stroke-linecap:butt;stroke-miterlimit:4;stroke-dasharray:none;stroke-dashoffset:0;stroke-opacity:1;paint-order:fill markers stroke"
       d="m 39.020371,287.30311 a 0.53009016,0.53009016 0 0 1 -0.74967,1.8e-4 l -1.740506,-1.74129 -0.749486,-0.74987 0.749834,-0.74947 1.741318,-1.74051 a 0.53009016,0.53009016 0 0 1 0.749668,-1.8e-4 0.53009016,0.53009016 0 0 1 -2.23e-4,0.74965 l -1.741317,1.74051 1.740506,1.74132 a 0.53009016,0.53009016 0 0 1 -2.22e-4,0.74966 z"
       id="path827"
       inkscape:connector-curvature="0"
       inkscape:transform-center-x="-1.6979872"
       inkscape:transform-center-y="0.00050175847"
       inkscape:export-xdpi="96"
       inkscape:export-ydpi="96" />
    <path
       style="opacity:1;fill:#16a4ab;fill-opacity:1;stroke:none;stroke-width:0.26458332px;stroke-linecap:butt;stroke-linejoin:miter;stroke-opacity:1"
       d="m 40.623391,299.41974 c -0.07416,-0.0959 -0.173537,-0.14943 -0.276951,-0.14946 l -4.495154,-3.6e-4 c -0.219766,1.3e-4 -0.397899,0.23727 -0.397997,0.52984 -2.04e-4,0.29286 0.178012,0.53045 0.397994,0.53058 l 4.495406,-6.3e-4 c 0.219978,6e-5 0.398317,-0.23736 0.398267,-0.53021 -1.9e-4,-0.1433 -0.04395,-0.28039 -0.121315,-0.38003 z"
       id="path1377"
       inkscape:connector-curvature="0"
       sodipodi:nodetypes="ccccccccc"
       inkscape:export-filename="C:\My\Projects\Web\sibur_arenda_1.0\src\resource\img\appFormMinBtn.png"
       inkscape:export-xdpi="96"
       inkscape:export-ydpi="96" />
    <path
       inkscape:export-ydpi="96"
       inkscape:export-xdpi="96"
       inkscape:export-filename="C:\My\Projects\Web\sibur_arenda_1.0\src\resource\img\appFormMinBtnHvr.png"
       style="opacity:1;fill:#16a4ab;fill-opacity:1;stroke:none;stroke-width:0.26458332px;stroke-linecap:butt;stroke-linejoin:miter;stroke-opacity:1"
       d="m -61.407019,302.47015 c -0.07416,-0.0959 -0.173537,-0.14943 -0.276951,-0.14946 l -4.495154,-3.6e-4 c -0.219766,1.3e-4 -0.397899,0.23727 -0.397997,0.52984 -2.04e-4,0.29286 0.178012,0.53045 0.397994,0.53058 l 4.495406,-6.3e-4 c 0.219978,6e-5 0.398317,-0.23736 0.398267,-0.53021 -1.9e-4,-0.1433 -0.04395,-0.28039 -0.121315,-0.38003 z"
       id="path891"
       inkscape:connector-curvature="0"
       sodipodi:nodetypes="ccccccccc" />
    <path
       style="opacity:1;fill:#efefef;fill-opacity:1;stroke:none;stroke-width:0.13229166;stroke-linecap:round;stroke-linejoin:round;stroke-miterlimit:4;stroke-dasharray:none;stroke-dashoffset:0;stroke-opacity:1;paint-order:fill markers stroke"
       d="m 53.999706,296.84167 v 10e-4 c -0.01241,-10e-5 -0.02482,2.3e-4 -0.03721,10e-4 -0.01766,0.001 -0.03525,0.003 -0.05271,0.006 -0.01741,0.003 -0.03466,0.007 -0.05168,0.0119 -0.01697,0.005 -0.0337,0.0102 -0.05013,0.0165 -0.01654,0.006 -0.03275,0.0137 -0.04857,0.0217 -0.01576,0.008 -0.03111,0.0168 -0.04599,0.0263 -0.0148,0.01 -0.02912,0.02 -0.04289,0.031 -0.01383,0.0109 -0.02711,0.0224 -0.03979,0.0346 -0.01271,0.0125 -0.02478,0.0256 -0.03617,0.0393 -0.01137,0.0134 -0.02206,0.0274 -0.03204,0.0419 -0.01006,0.0147 -0.01937,0.0299 -0.0279,0.0455 -0.0085,0.0154 -0.01629,0.0313 -0.02325,0.0475 -0.0069,0.0162 -0.01289,0.0328 -0.01809,0.0496 -0.0052,0.017 -0.0095,0.0343 -0.01292,0.0517 -0.0035,0.0173 -0.0061,0.0347 -0.0078,0.0522 -0.0019,0.0175 -0.0029,0.0351 -0.0031,0.0527 v 0.5302 3.70159 c 9.8e-5,0.0124 6.31e-4,0.0248 0.0016,0.0372 0.0012,0.0177 0.0033,0.0352 0.0062,0.0527 0.0031,0.0174 0.0071,0.0347 0.01189,0.0517 0.0047,0.017 0.0102,0.0337 0.01654,0.0501 0.0064,0.0165 0.01366,0.0328 0.0217,0.0486 0.008,0.0158 0.01681,0.0311 0.02636,0.046 0.0096,0.0148 0.01996,0.0291 0.03101,0.0429 0.01087,0.0138 0.02243,0.0271 0.03462,0.0398 0.01231,0.0127 0.02524,0.0248 0.03876,0.0362 0.01358,0.0114 0.02773,0.022 0.04238,0.032 0.01451,0.01 0.02952,0.0193 0.04496,0.0279 0.01562,0.009 0.03166,0.0163 0.04806,0.0233 0.01623,0.007 0.03278,0.0129 0.04961,0.0181 0.017,0.005 0.03425,0.009 0.05168,0.0129 0.01725,0.004 0.03467,0.006 0.05219,0.008 0.01751,0.002 0.0351,0.003 0.05271,0.003 h 0.530199 3.171383 0.531752 c 0.01259,-2.2e-4 0.02517,-8.9e-4 0.03772,-0.002 0.01766,-10e-4 0.03525,-0.003 0.05271,-0.006 0.01741,-0.003 0.03466,-0.007 0.05168,-0.0119 0.01697,-0.005 0.0337,-0.0102 0.05012,-0.0165 0.01654,-0.006 0.03275,-0.0137 0.04857,-0.0217 0.01576,-0.008 0.03111,-0.0168 0.04599,-0.0264 0.0148,-0.01 0.02912,-0.02 0.04289,-0.031 0.01383,-0.0109 0.02711,-0.0224 0.03979,-0.0346 0.0127,-0.0123 0.02477,-0.0253 0.03617,-0.0388 0.01138,-0.0136 0.02208,-0.0277 0.03204,-0.0424 0.01006,-0.0147 0.01937,-0.0299 0.0279,-0.0455 0.0084,-0.0155 0.01595,-0.0314 0.02274,-0.0476 0.0069,-0.0162 0.01289,-0.0328 0.01809,-0.0496 0.0053,-0.017 0.0098,-0.0342 0.01344,-0.0517 0.0035,-0.0173 0.0061,-0.0347 0.0078,-0.0522 2.05e-4,-0.003 3.77e-4,-0.007 5.16e-4,-0.0103 v -0.0884 -0.48421 -3.17138 -0.52968 -5.2e-4 c 1.02e-4,-0.0124 -2.31e-4,-0.0248 -10e-4,-0.0372 -0.0014,-0.0177 -0.0036,-0.0353 -0.0067,-0.0527 -0.0029,-0.0174 -0.0067,-0.0347 -0.01137,-0.0517 -0.0047,-0.017 -0.0102,-0.0337 -0.01654,-0.0501 -0.0064,-0.0165 -0.01366,-0.0328 -0.0217,-0.0486 -0.008,-0.0158 -0.0168,-0.0311 -0.02635,-0.046 -0.0096,-0.0148 -0.01996,-0.0291 -0.03101,-0.0429 -0.01104,-0.0138 -0.02277,-0.0271 -0.03514,-0.0398 -0.01231,-0.0127 -0.02524,-0.0248 -0.03876,-0.0362 -0.01341,-0.0113 -0.02739,-0.022 -0.04186,-0.032 -0.01468,-0.0101 -0.02986,-0.0194 -0.04548,-0.0279 -0.01546,-0.008 -0.03133,-0.0159 -0.04754,-0.0227 -0.01622,-0.007 -0.03277,-0.0132 -0.04961,-0.0186 -0.017,-0.005 -0.03425,-0.009 -0.05168,-0.0129 -0.01725,-0.004 -0.03467,-0.006 -0.05219,-0.008 -0.01768,-0.002 -0.03545,-0.003 -0.05323,-0.003 h -0.529685 -3.701066 -5.16e-4 z m 0.530199,1.06092 h 3.171383 v 3.17138 h -0.698787 c 0.150854,-0.39078 -0.04547,-0.62885 -0.102878,-0.76839 0.09355,0.045 0.286694,0.20287 0.325723,0.32759 -0.0013,-1.04762 -1.420204,-1.88105 -1.774569,-1.96835 0.06415,0.18078 0.23408,0.76003 0.01191,1.41219 0.121854,-0.011 0.348307,-0.0135 0.359647,0.0285 0.13517,0.5002 -0.630021,0.76553 -1.292429,0.96841 z"
       id="path951"
       inkscape:connector-curvature="0"
       inkscape:export-filename="C:\My\Projects\Web\sibur_arenda_1.0\src\resource\img\expandAppFormBtn.png"
       inkscape:export-xdpi="96"
       inkscape:export-ydpi="96"
       sodipodi:nodetypes="ccccccccccccccccccccccccccccccccccccccccccccccccccccccccccccccccccccccccccccccccccccccccccc" />
    <rect
       style="opacity:1;fill:none;fill-opacity:1;stroke:#000000;stroke-width:0.26458332;stroke-linecap:round;stroke-linejoin:miter;stroke-miterlimit:4;stroke-dasharray:none;stroke-dashoffset:0;stroke-opacity:1;paint-order:fill markers stroke"
       id="rect835"
       width="5.285255"
       height="5.285255"
       x="-63.759178"
       y="311.36069" />
    <path
       style="fill:none;stroke:#efefef;stroke-width:0.5291667;stroke-linecap:butt;stroke-linejoin:miter;stroke-miterlimit:4;stroke-dasharray:none;stroke-opacity:1"
       d="m 40.067321,304.03561 0.963338,0.7736 1.151184,-1.58863"
       id="path837"
       inkscape:connector-curvature="0"
       sodipodi:nodetypes="ccc"
       inkscape:export-filename="C:\My\Projects\Web\sibur_arenda_1.0\src\resource\img\tick.png"
       inkscape:export-xdpi="96"
       inkscape:export-ydpi="96" />
    <path
       sodipodi:nodetypes="ccc"
       inkscape:connector-curvature="0"
       id="path839"
       d="m 45.366304,306.51737 0.963338,0.7736 1.151184,-1.58863"
       style="fill:none;stroke:#16a4ab;stroke-width:0.5291667;stroke-linecap:butt;stroke-linejoin:miter;stroke-miterlimit:4;stroke-dasharray:none;stroke-opacity:1"
       inkscape:export-filename="C:\My\Projects\Web\sibur_arenda_1.0\src\resource\img\tickHvr.png"
       inkscape:export-xdpi="96"
       inkscape:export-ydpi="96" />
    <path
       style="opacity:1;fill:#16a4ab;fill-opacity:1;stroke:none;stroke-width:0.66145837;stroke-linecap:butt;stroke-miterlimit:4;stroke-dasharray:none;stroke-dashoffset:0;stroke-opacity:1;paint-order:fill markers stroke"
       d="m 56.397018,289.11621 a 0.53007926,0.53007926 0 0 0 -0.366895,0.15502 0.53007926,0.53007926 0 0 0 0,0.74981 l 1.741459,1.74044 -1.740428,1.74145 a 0.53007926,0.53007926 0 0 0 0,0.74929 0.53007926,0.53007926 0 0 0 0.749813,5.2e-4 l 1.740424,-1.74093 -5.29e-4,-5.2e-4 h 5.29e-4 v 5.2e-4 l 1.73991,1.74093 a 0.53007926,0.53007926 0 0 0 0.74981,-5.2e-4 0.53007926,0.53007926 0 0 0 0,-0.74929 l -1.740428,-1.74145 1.74146,-1.74044 a 0.53007926,0.53007926 0 0 0 0,-0.74981 0.53007926,0.53007926 0 0 0 -0.749293,5.4e-4 l -1.741459,1.74043 h -5.29e-4 l -1.740943,-1.74043 a 0.53007926,0.53007926 0 0 0 -0.382914,-0.15556 z"
       id="path1964"
       inkscape:connector-curvature="0"
       inkscape:export-filename="C:\My\Projects\Web\sibur_arenda_1.0\src\resource\img\removeRoomBtnHover.png"
       inkscape:export-xdpi="96"
       inkscape:export-ydpi="96" />
    <path
       sodipodi:nodetypes="ccccccccccccccccccccccccccccccccccccccccccccccccccccccccccccccccccccccccccccccccccccccccccc"
       inkscape:export-ydpi="96"
       inkscape:export-xdpi="96"
       inkscape:export-filename="C:\My\Projects\Web\sibur_arenda_1.0\src\resource\img\expandAppFormBtn.png"
       inkscape:connector-curvature="0"
       id="path1966"
       d="m 31.63432,290.23971 v 10e-4 c -0.01241,-10e-5 -0.02482,2.3e-4 -0.03721,0.001 -0.01766,10e-4 -0.03525,0.003 -0.05271,0.006 -0.01741,0.003 -0.03466,0.007 -0.05168,0.0119 -0.01697,0.005 -0.0337,0.0102 -0.05013,0.0165 -0.01654,0.006 -0.03275,0.0137 -0.04857,0.0217 -0.01576,0.008 -0.03111,0.0168 -0.04599,0.0263 -0.0148,0.01 -0.02912,0.02 -0.04289,0.031 -0.01383,0.0109 -0.02711,0.0224 -0.03979,0.0346 -0.01271,0.0125 -0.02478,0.0256 -0.03617,0.0393 -0.01137,0.0134 -0.02206,0.0274 -0.03204,0.0419 -0.01006,0.0147 -0.01937,0.0299 -0.0279,0.0455 -0.0085,0.0154 -0.01629,0.0313 -0.02325,0.0475 -0.0069,0.0162 -0.01289,0.0328 -0.01809,0.0496 -0.0052,0.017 -0.0095,0.0343 -0.01292,0.0517 -0.0035,0.0173 -0.0061,0.0347 -0.0078,0.0522 -0.0019,0.0175 -0.0029,0.0351 -0.0031,0.0527 v 0.5302 3.70159 c 9.8e-5,0.0124 6.31e-4,0.0248 0.0016,0.0372 0.0012,0.0177 0.0033,0.0352 0.0062,0.0527 0.0031,0.0174 0.0071,0.0347 0.01189,0.0517 0.0047,0.017 0.0102,0.0337 0.01654,0.0501 0.0064,0.0165 0.01366,0.0328 0.0217,0.0486 0.008,0.0158 0.01681,0.0311 0.02636,0.046 0.0096,0.0148 0.01996,0.0291 0.03101,0.0429 0.01087,0.0138 0.02243,0.0271 0.03462,0.0398 0.01231,0.0127 0.02524,0.0248 0.03876,0.0362 0.01358,0.0114 0.02773,0.022 0.04238,0.032 0.01451,0.01 0.02952,0.0193 0.04496,0.0279 0.01562,0.009 0.03166,0.0163 0.04806,0.0233 0.01623,0.007 0.03278,0.0129 0.04961,0.0181 0.017,0.005 0.03425,0.009 0.05168,0.0129 0.01725,0.004 0.03467,0.006 0.05219,0.008 0.01751,0.002 0.0351,0.003 0.05271,0.003 h 0.530199 3.171383 0.531752 c 0.01259,-2.2e-4 0.02517,-8.9e-4 0.03772,-0.002 0.01766,-0.001 0.03525,-0.003 0.05271,-0.006 0.01741,-0.003 0.03466,-0.007 0.05168,-0.0119 0.01697,-0.005 0.0337,-0.0102 0.05012,-0.0165 0.01654,-0.006 0.03275,-0.0137 0.04857,-0.0217 0.01576,-0.008 0.03111,-0.0168 0.04599,-0.0264 0.0148,-0.01 0.02912,-0.02 0.04289,-0.031 0.01383,-0.0109 0.02711,-0.0224 0.03979,-0.0346 0.0127,-0.0123 0.02477,-0.0253 0.03617,-0.0388 0.01138,-0.0136 0.02208,-0.0277 0.03204,-0.0424 0.01006,-0.0147 0.01937,-0.0299 0.0279,-0.0455 0.0084,-0.0155 0.01595,-0.0314 0.02274,-0.0476 0.0069,-0.0162 0.01289,-0.0328 0.01809,-0.0496 0.0053,-0.017 0.0098,-0.0342 0.01344,-0.0517 0.0035,-0.0173 0.0061,-0.0347 0.0078,-0.0522 2.05e-4,-0.003 3.77e-4,-0.007 5.16e-4,-0.0103 v -0.0884 -0.48421 -3.17138 -0.52968 -5.2e-4 c 1.02e-4,-0.0124 -2.31e-4,-0.0248 -0.001,-0.0372 -0.0014,-0.0177 -0.0036,-0.0353 -0.0067,-0.0527 -0.0029,-0.0174 -0.0067,-0.0347 -0.01137,-0.0517 -0.0047,-0.017 -0.0102,-0.0337 -0.01654,-0.0501 -0.0064,-0.0165 -0.01366,-0.0328 -0.0217,-0.0486 -0.008,-0.0158 -0.0168,-0.0311 -0.02635,-0.046 -0.0096,-0.0148 -0.01996,-0.0291 -0.03101,-0.0429 -0.01104,-0.0138 -0.02277,-0.0271 -0.03514,-0.0398 -0.01231,-0.0127 -0.02524,-0.0248 -0.03876,-0.0362 -0.01341,-0.0113 -0.02739,-0.022 -0.04186,-0.032 -0.01468,-0.0101 -0.02986,-0.0194 -0.04548,-0.0279 -0.01546,-0.008 -0.03133,-0.0159 -0.04754,-0.0227 -0.01622,-0.007 -0.03277,-0.0132 -0.04961,-0.0186 -0.017,-0.005 -0.03425,-0.009 -0.05168,-0.0129 -0.01725,-0.004 -0.03467,-0.006 -0.05219,-0.008 -0.01768,-0.002 -0.03545,-0.003 -0.05323,-0.003 h -0.529685 -3.701066 -5.16e-4 z m 0.530199,1.06092 h 3.171383 v 3.17138 h -0.698787 c 0.150854,-0.39078 -0.04547,-0.62885 -0.102878,-0.76839 0.09355,0.045 0.286694,0.20287 0.325723,0.32759 -0.0013,-1.04762 -1.420204,-1.88105 -1.774569,-1.96835 0.06415,0.18078 0.23408,0.76003 0.01191,1.41219 0.121854,-0.011 0.348307,-0.0135 0.359647,0.0285 0.13517,0.5002 -0.630021,0.76553 -1.292429,0.96841 z"
       style="opacity:1;fill:#16a4ab;fill-opacity:1;stroke:none;stroke-width:0.13229166;stroke-linecap:round;stroke-linejoin:round;stroke-miterlimit:4;stroke-dasharray:none;stroke-dashoffset:0;stroke-opacity:1;paint-order:fill markers stroke" />
    <path
       inkscape:export-filename="C:\My\Projects\Web\sibur_arenda_1.0\src\resource\img\prevMonthIcon.png"
       style="opacity:1;fill:#efefef;fill-opacity:1;stroke:none;stroke-width:0.66145831;stroke-linecap:butt;stroke-miterlimit:4;stroke-dasharray:none;stroke-dashoffset:0;stroke-opacity:1;paint-order:fill markers stroke"
       d="m 66.373994,312.88161 a 0.53009016,0.53009016 0 0 1 -0.74967,1.8e-4 l -1.740506,-1.74129 -0.749486,-0.74987 0.749834,-0.74947 1.741318,-1.74051 a 0.53009016,0.53009016 0 0 1 0.749668,-1.8e-4 0.53009016,0.53009016 0 0 1 -2.23e-4,0.74965 l -1.741317,1.74051 1.740506,1.74132 a 0.53009016,0.53009016 0 0 1 -2.22e-4,0.74966 z"
       id="path835"
       inkscape:connector-curvature="0"
       inkscape:transform-center-x="-1.6979872"
       inkscape:transform-center-y="0.00050175847"
       inkscape:export-xdpi="96"
       inkscape:export-ydpi="96" />
    <circle
       style="opacity:1;fill:#16a4ab;fill-opacity:1;stroke:none;stroke-width:0.52916664;stroke-linecap:round;stroke-linejoin:miter;stroke-miterlimit:4;stroke-dasharray:none;stroke-dashoffset:0;stroke-opacity:1;paint-order:fill markers stroke"
       id="path836"
       cx="28.279734"
       cy="299.26251"
       r="1.0583333" />
    <path
       style="fill:#ff0000;stroke:none;stroke-width:0.26458332px;stroke-linecap:butt;stroke-linejoin:miter;stroke-opacity:1"
       d="m 56.411164,308.74935 a 0.3693981,0.3693981 0 0 0 -0.03721,0.002 0.3693981,0.3693981 0 0 0 -0.03617,0.006 0.3693981,0.3693981 0 0 0 -0.03617,0.009 0.3693981,0.3693981 0 0 0 -0.03462,0.0124 0.3693981,0.3693981 0 0 0 -0.03307,0.016 0.3693981,0.3693981 0 0 0 -0.03152,0.0196 0.3693981,0.3693981 0 0 0 -0.02946,0.0222 0.3693981,0.3693981 0 0 0 -0.02687,0.0253 0.3693981,0.3693981 0 0 0 -0.02429,0.0279 0.3693981,0.3693981 0 0 0 -0.02119,0.03 l -0.01757,0.03 -1.593184,2.75952 c -0.07435,0.1161 -0.07775,0.26403 -0.0088,0.38344 0.0691,0.11933 0.198677,0.19052 0.336413,0.18397 h 3.184819 c 0.137824,0.007 0.269853,-0.0646 0.338998,-0.18397 0.0691,-0.11965 0.06539,-0.26823 -0.0093,-0.38447 l -1.592668,-2.75849 -0.0186,-0.032 a 0.3693981,0.3693981 0 0 0 -0.0217,-0.03 0.3693981,0.3693981 0 0 0 -0.02429,-0.0279 0.3693981,0.3693981 0 0 0 -0.02739,-0.0248 0.3693981,0.3693981 0 0 0 -0.02946,-0.0222 0.3693981,0.3693981 0 0 0 -0.03152,-0.0191 0.3693981,0.3693981 0 0 0 -0.03307,-0.016 0.3693981,0.3693981 0 0 0 -0.03514,-0.0124 0.3693981,0.3693981 0 0 0 -0.03566,-0.009 0.3693981,0.3693981 0 0 0 -0.03669,-0.005 0.3693981,0.3693981 0 0 0 -0.03462,-0.002 z"
       id="path874"
       inkscape:connector-curvature="0" />
    <g
       id="g920"
       transform="matrix(0.54009254,0,0,0.54009254,53.214869,150.62996)"
       style="fill:#ffffff;stroke-width:1.85153449">
      <path
         id="path905"
         transform="matrix(0.26458333,0,0,0.26458333,0,292.50208)"
         d="m 22.367188,7.7265625 c -1.181537,0.044511 -2.127617,1.0105467 -2.126954,2.203125 0.263895,3.5854345 0.968763,6.2948755 1.5625,8.5332035 0.04503,0.169752 0.09898,0.246544 0.203125,0.357421 0.01707,0.01818 0.04103,0.02833 0.0625,0.04102 0.02157,0.01275 0.04374,0.02445 0.06641,0.03516 0.02297,0.01085 0.04627,0.02109 0.07031,0.0293 0.02363,0.0081 0.04792,0.014 0.07227,0.01953 0.02455,0.0056 0.04926,0.01043 0.07422,0.01367 0.0052,6.8e-4 0.01041,0.0014 0.01563,0.002 0.0053,-6.05e-4 0.01041,-0.0013 0.01562,-0.002 0.02496,-0.0038 0.04965,-0.0099 0.07422,-0.01367 0.02435,-0.0038 0.04864,-0.01197 0.07227,-0.01953 0.02404,-0.0076 0.04733,-0.01796 0.07031,-0.0293 0.02267,-0.01134 0.04483,-0.02382 0.06641,-0.03516 0.02147,-0.01474 0.04542,-0.02212 0.0625,-0.04102 0.104145,-0.111118 0.158095,-0.187721 0.203125,-0.357421 0.593737,-2.238312 1.298605,-4.947755 1.5625,-8.5332035 6.63e-4,-1.1925921 -0.945416,-2.1585266 -2.126953,-2.203125 z"
         style="opacity:1;fill:#ffffff;fill-opacity:1;stroke:none;stroke-width:3.70306897;stroke-linecap:round;stroke-linejoin:miter;stroke-miterlimit:4;stroke-dasharray:none;stroke-dashoffset:0;stroke-opacity:1;paint-order:fill markers stroke"
         inkscape:connector-curvature="0" />
      <circle
         r="0.3175"
         cy="297.92987"
         cx="5.917985"
         id="path915"
         style="opacity:1;fill:#ffffff;fill-opacity:1;stroke:none;stroke-width:0.9797703;stroke-linecap:round;stroke-linejoin:miter;stroke-miterlimit:4;stroke-dasharray:none;stroke-dashoffset:0;stroke-opacity:1;paint-order:fill markers stroke" />
    </g>
    <circle
       style="opacity:1;fill:#16a4ab;fill-opacity:1;stroke:none;stroke-width:0.52916658;stroke-linecap:round;stroke-linejoin:miter;stroke-miterlimit:4;stroke-dasharray:none;stroke-dashoffset:0;stroke-opacity:1;paint-order:fill markers stroke"
       id="path842"
       cx="71.25396"
       cy="300.58151"
       r="1.8520833" />
    <path
       inkscape:connector-curvature="0"
       style="opacity:1;fill:#efefef;fill-opacity:1;stroke:none;stroke-width:0.52916664;stroke-linecap:round;stroke-linejoin:miter;stroke-miterlimit:4;stroke-dasharray:none;stroke-dashoffset:0;stroke-opacity:1;paint-order:fill markers stroke"
       d="m 70.891446,300.1293 v 0.19896 h 0.09819 v 1.50171 h -0.09819 v 0.19896 h 0.09819 0.529167 0.09767 v -0.19896 h -0.09767 v -1.50171 h 0.09767 v -0.19896 h -0.09767 -0.529166 z"
       id="rect861" />
    <circle
       style="opacity:1;fill:#efefef;fill-opacity:1;stroke:none;stroke-width:0.52916658;stroke-linecap:round;stroke-linejoin:miter;stroke-miterlimit:4;stroke-dasharray:none;stroke-dashoffset:0;stroke-opacity:1;paint-order:fill markers stroke"
       id="path863"
       cx="71.254036"
       cy="299.46484"
       r="0.33072916" />
    <path
       style="fill:none;stroke:#efefef;stroke-width:0.37041667;stroke-linecap:butt;stroke-linejoin:miter;stroke-miterlimit:4;stroke-dasharray:none;stroke-opacity:1"
       d="m 1.3544136,290.10295 h 1.252996 v 3.09897"
       id="path941"
       inkscape:connector-curvature="0"
       sodipodi:nodetypes="ccc" />
    <text
       xml:space="preserve"
       style="font-style:normal;font-weight:normal;font-size:4.52339172px;line-height:1.25;font-family:sans-serif;letter-spacing:0px;word-spacing:0px;fill:#efefef;fill-opacity:1;stroke:none;stroke-width:0.26458329"
       x="3.5466664"
       y="296.6861"
       id="text947"><tspan
         sodipodi:role="line"
         id="tspan945"
         x="3.5466664"
         y="296.6861"
         style="fill:#efefef;fill-opacity:1;stroke-width:0.26458329">2</tspan></text>
    <path
       style="fill:none;stroke:#efefef;stroke-width:0.37041667;stroke-linecap:butt;stroke-linejoin:miter;stroke-miterlimit:4;stroke-dasharray:none;stroke-opacity:1"
       d="m 1.4386446,294.9457 4.5310439,-3.29974"
       id="path949"
       inkscape:connector-curvature="0"
       sodipodi:nodetypes="cc" />
  </g>
</svg>
