<?xml version="1.0" encoding="UTF-8" standalone="no"?>
<!-- Created with Inkscape (http://www.inkscape.org/) -->

<svg
   xmlns:dc="http://purl.org/dc/elements/1.1/"
   xmlns:cc="http://creativecommons.org/ns#"
   xmlns:rdf="http://www.w3.org/1999/02/22-rdf-syntax-ns#"
   xmlns:svg="http://www.w3.org/2000/svg"
   xmlns="http://www.w3.org/2000/svg"
   xmlns:sodipodi="http://sodipodi.sourceforge.net/DTD/sodipodi-0.dtd"
   xmlns:inkscape="http://www.inkscape.org/namespaces/inkscape"
   width="28"
   height="28"
   viewBox="0 0 7.4083331 7.4083334"
   version="1.1"
   id="svg8"
   inkscape:version="0.92.4 (5da689c313, 2019-01-14)"
   sodipodi:docname="halfFieldHvr.svg">
  <defs
     id="defs2" />
  <sodipodi:namedview
     id="base"
     pagecolor="#ffffff"
     bordercolor="#666666"
     borderopacity="1.0"
     inkscape:pageopacity="0.0"
     inkscape:pageshadow="2"
     inkscape:zoom="0.70710675"
     inkscape:cx="-359.03951"
     inkscape:cy="213.73528"
     inkscape:document-units="mm"
     inkscape:current-layer="layer1"
     showgrid="false"
     showguides="true"
     inkscape:object-paths="true"
     inkscape:snap-smooth-nodes="true"
     inkscape:snap-intersection-paths="true"
     inkscape:snap-center="true"
     inkscape:window-width="1920"
     inkscape:window-height="1001"
     inkscape:window-x="-9"
     inkscape:window-y="-9"
     inkscape:window-maximized="1"
     inkscape:snap-global="true"
     inkscape:snap-bbox="true"
     inkscape:bbox-paths="true"
     inkscape:snap-bbox-edge-midpoints="true"
     inkscape:snap-bbox-midpoints="true"
     inkscape:bbox-nodes="true"
     units="px"
     inkscape:showpageshadow="false"
     inkscape:snap-page="true"
     inkscape:snap-object-midpoints="true"
     inkscape:snap-nodes="true"
     inkscape:snap-midpoints="true" />
  <metadata
     id="metadata5">
    <rdf:RDF>
      <cc:Work
         rdf:about="">
        <dc:format>image/svg+xml</dc:format>
        <dc:type
           rdf:resource="http://purl.org/dc/dcmitype/StillImage" />
        <dc:title></dc:title>
      </cc:Work>
    </rdf:RDF>
  </metadata>
  <g
     inkscape:label="Layer 1"
     inkscape:groupmode="layer"
     id="layer1"
     transform="translate(0,-289.59166)">
    <rect
       style="opacity:1;fill:none;fill-opacity:1;stroke:none;stroke-width:0.21166666;stroke-linecap:round;stroke-linejoin:miter;stroke-miterlimit:4;stroke-dasharray:none;stroke-dashoffset:0;stroke-opacity:1;paint-order:fill markers stroke"
       id="rect992"
       width="7.4083333"
       height="7.4083385"
       x="0"
       y="289.59167" />
    <path
       style="opacity:1;fill:#da6509;fill-opacity:1;stroke:none;stroke-width:0.52916658;stroke-linecap:round;stroke-linejoin:miter;stroke-miterlimit:4;stroke-dasharray:none;stroke-dashoffset:0;stroke-opacity:1;paint-order:fill markers stroke"
       d="m 3.6764251,290.35753 -0.121051,0.0872 c 0.4538118,0.63246 0.2643803,1.36259 -0.3001106,1.86249 -0.031024,0.0666 -0.072541,0.12838 -0.136185,0.17396 -0.064225,0.0461 -0.1369088,0.0666 -0.2105827,0.0745 -0.6532599,0.37159 -1.4034644,0.31689 -1.8561457,-0.31401 l -0.12231396,0.0872 1.40850246,1.96334 -0.052961,-0.078 0.7641469,-0.54724 c -0.1897594,-0.33495 -0.1119314,-0.76153 0.2080594,-0.99113 0.31976,-0.22937 0.75173,-0.16892 1.0087752,0.11746 l 0.7641483,-0.54744 z m -0.1777981,0.12754 -0.725057,0.52075 0.035307,-0.0126 0.050439,0.12502 -0.064309,0.0279 -0.050439,-0.11746 -0.8826779,0.63301 0.095834,0.0858 -0.047915,0.0519 -0.100877,-0.0883 0.023962,-0.0279 -0.723796,0.51952 c 0.4081908,0.56879 1.0654433,0.64422 1.6619567,0.35182 -0.1050574,-0.0218 -0.2026962,-0.0778 -0.2698472,-0.17155 -0.022107,-0.0307 -0.032239,-0.0655 -0.045394,-0.0995 l -0.01764,-0.0126 0.00756,-0.01 c -0.00946,-0.0291 -0.01568,-0.0571 -0.018901,-0.0872 l -0.040354,0.0465 -0.1059198,-0.0931 0.045394,-0.0531 0.100877,0.0883 c -0.012502,-0.15026 0.044255,-0.30438 0.1752724,-0.39845 0.1318478,-0.0946 0.2972441,-0.0991 0.4362955,-0.0379 l -0.052961,-0.12614 0.06557,-0.0252 0.055483,0.12866 -0.060529,0.0252 c 0.026999,0.0112 0.05138,0.0274 0.075657,0.0454 l 0.012614,-0.004 0.011326,0.0267 c 0.026134,0.0218 0.054727,0.0414 0.075657,0.0704 0.067409,0.0939 0.090206,0.20595 0.07692,0.31273 0.4703396,-0.47157 0.6095321,-1.12087 0.2004952,-1.6909 z m -0.6128308,0.69603 0.055483,0.12866 -0.064309,0.0291 -0.055483,-0.12992 z m 0.083223,0.19425 0.054221,0.12992 -0.063049,0.0279 -0.055483,-0.12992 z m -0.9583361,0.41613 0.1059198,0.092 -0.047915,0.0531 -0.1046598,-0.0931 z m 0.8952878,0.0519 c -0.070771,-0.0112 -0.1456708,0.004 -0.209321,0.0505 -0.1273006,0.0913 -0.155652,0.26476 -0.064309,0.39214 0.091342,0.12726 0.26486,0.15568 0.3921613,0.0644 0.1273006,-0.0913 0.15565,-0.26483 0.064309,-0.39219 -0.045669,-0.0634 -0.1120714,-0.10318 -0.18284,-0.11466 z m -0.7376667,0.0883 0.1046598,0.0931 -0.046655,0.0519 -0.1059198,-0.0931 z m 2.9557111,0.44385 -0.7641473,0.54851 c 0.187859,0.33538 0.1099126,0.76588 -0.2093212,0.99492 -0.3190678,0.2289 -0.7491124,0.16296 -1.0062533,-0.12222 l -0.7666689,0.5498 1.3542802,1.8877 0.1223152,-0.0883 H 3.85296 c -0.45362,-0.6322 -0.2638842,-1.36255 0.3001103,-1.86249 0.031053,-0.0657 0.073322,-0.12642 0.1361864,-0.17154 0.062758,-0.0452 0.1336006,-0.0645 0.2055389,-0.0732 0.2972824,-0.17042 0.6144561,-0.25746 0.9154629,-0.23573 0.3618618,0.0259 0.6990686,0.20066 0.9469875,0.546 v 0.001 l 0.121051,-0.0869 z m -1.3214957,0.32407 c -0.1521092,-0.0245 -0.3142601,0.0112 -0.4501656,0.1071 -0.2490514,0.17864 -0.3131676,0.50504 -0.1740144,0.76793 l 0.9570755,-0.68731 c -0.09288,-0.098 -0.2063344,-0.16782 -0.332896,-0.18783 z m 0.4262073,0.31902 -0.9570753,0.68597 c 0.205063,0.21474 0.536004,0.26007 0.784323,0.0819 0.2480378,-0.17771 0.310007,-0.50498 0.1727523,-0.76792 z m 1.0856945,0.85116 c -0.2253261,-4e-5 -0.457911,0.0592 -0.6821843,0.17042 0.1070118,0.0218 0.2066467,0.079 0.2748911,0.17398 0.020131,0.028 0.027657,0.0603 0.040352,0.0907 l 0.023962,0.0202 -0.01008,0.0112 c 0.0092,0.0281 0.015568,0.0554 0.018904,0.0846 l 0.042874,-0.0477 0.1046584,0.0931 -0.045394,0.0531 -0.1021384,-0.0896 c 0.014354,0.15212 -0.041524,0.30719 -0.1740144,0.40228 -0.1315034,0.0946 -0.2961981,0.0986 -0.4350339,0.0379 l 0.051699,0.12334 -0.065572,0.0252 -0.054223,-0.12866 0.058003,-0.0245 c -0.027324,-0.0112 -0.05241,-0.027 -0.076917,-0.0454 l -0.01008,0.004 -0.01008,-0.0245 c -0.026561,-0.0218 -0.055698,-0.041 -0.076922,-0.0704 -0.067672,-0.0945 -0.090559,-0.20666 -0.076922,-0.31397 -0.4688497,0.47148 -0.607701,1.11916 -0.1992331,1.68843 l 0.7527982,-0.54093 -0.029002,0.0202 -0.034048,0.0126 -0.051699,-0.12502 0.064309,-0.0279 0.050439,0.11746 0.8826787,-0.63303 -0.094573,-0.0857 0.046655,-0.0519 0.1021384,0.0883 -0.025218,0.0279 0.7250562,-0.51952 C 6.0444773,294.03188 5.6899486,293.868 5.3144038,293.86791 Z m -0.7212745,0.32406 c -0.070769,-0.0112 -0.145669,0.004 -0.209321,0.0505 -0.1273006,0.0913 -0.156912,0.26484 -0.06557,0.39215 0.09134,0.12754 0.2661209,0.15568 0.3934221,0.0644 0.1273006,-0.0913 0.1556502,-0.26485 0.064309,-0.39215 -0.045669,-0.0634 -0.1120728,-0.10318 -0.18284,-0.11466 z m 0.5901337,0.32029 0.1046584,0.0931 -0.046655,0.0519 -0.1059198,-0.0931 z m 0.1563596,0.14 0.1059198,0.0946 -0.046655,0.0505 -0.1059226,-0.092 z m -0.8902439,0.40352 0.055481,0.12992 -0.065572,0.0279 -0.054219,-0.12992 z m 0.083223,0.19427 0.054221,0.12992 -0.064309,0.0291 -0.054221,-0.12992 z"
       id="rect846"
       inkscape:connector-curvature="0" />
    <path
       style="fill:none;stroke:#efefef;stroke-width:0.37041667;stroke-linecap:butt;stroke-linejoin:miter;stroke-miterlimit:4;stroke-dasharray:none;stroke-opacity:1"
       d="m 1.3544136,290.10295 h 1.252996 v 3.09897"
       id="path941"
       inkscape:connector-curvature="0"
       sodipodi:nodetypes="ccc" />
    <text
       xml:space="preserve"
       style="font-style:normal;font-weight:normal;font-size:4.52339172px;line-height:1.25;font-family:sans-serif;letter-spacing:0px;word-spacing:0px;fill:#efefef;fill-opacity:1;stroke:none;stroke-width:0.26458329"
       x="3.5466664"
       y="296.6861"
       id="text947"><tspan
         sodipodi:role="line"
         id="tspan945"
         x="3.5466664"
         y="296.6861"
         style="fill:#efefef;fill-opacity:1;stroke-width:0.26458329">2</tspan></text>
    <path
       style="fill:none;stroke:#efefef;stroke-width:0.37041667;stroke-linecap:butt;stroke-linejoin:miter;stroke-miterlimit:4;stroke-dasharray:none;stroke-opacity:1"
       d="m 1.4386446,294.9457 4.5310439,-3.29974"
       id="path949"
       inkscape:connector-curvature="0"
       sodipodi:nodetypes="cc" />
  </g>
</svg>
