<?xml version="1.0" encoding="UTF-8" standalone="no"?>
<!-- Created with Inkscape (http://www.inkscape.org/) -->

<svg
   xmlns:dc="http://purl.org/dc/elements/1.1/"
   xmlns:cc="http://creativecommons.org/ns#"
   xmlns:rdf="http://www.w3.org/1999/02/22-rdf-syntax-ns#"
   xmlns:svg="http://www.w3.org/2000/svg"
   xmlns="http://www.w3.org/2000/svg"
   xmlns:sodipodi="http://sodipodi.sourceforge.net/DTD/sodipodi-0.dtd"
   xmlns:inkscape="http://www.inkscape.org/namespaces/inkscape"
   width="15"
   height="15"
   viewBox="0 0 3.9687499 3.96875"
   version="1.1"
   id="svg8"
   inkscape:version="0.92.4 (5da689c313, 2019-01-14)"
   sodipodi:docname="inksc2.svg">
  <defs
     id="defs2" />
  <sodipodi:namedview
     id="base"
     pagecolor="#ffffff"
     bordercolor="#666666"
     borderopacity="1.0"
     inkscape:pageopacity="0.0"
     inkscape:pageshadow="2"
     inkscape:zoom="22.627416"
     inkscape:cx="20.771768"
     inkscape:cy="2.9930113"
     inkscape:document-units="mm"
     inkscape:current-layer="layer1"
     showgrid="false"
     showguides="true"
     inkscape:object-paths="true"
     inkscape:snap-smooth-nodes="true"
     inkscape:snap-intersection-paths="true"
     inkscape:snap-center="true"
     inkscape:window-width="1920"
     inkscape:window-height="1001"
     inkscape:window-x="-9"
     inkscape:window-y="-9"
     inkscape:window-maximized="1"
     inkscape:snap-global="true"
     inkscape:snap-bbox="true"
     inkscape:bbox-paths="true"
     inkscape:snap-bbox-edge-midpoints="true"
     inkscape:snap-bbox-midpoints="true"
     inkscape:bbox-nodes="true"
     units="px"
     inkscape:showpageshadow="false"
     inkscape:snap-page="true"
     inkscape:snap-object-midpoints="true"
     inkscape:snap-nodes="true" />
  <metadata
     id="metadata5">
    <rdf:RDF>
      <cc:Work
         rdf:about="">
        <dc:format>image/svg+xml</dc:format>
        <dc:type
           rdf:resource="http://purl.org/dc/dcmitype/StillImage" />
        <dc:title></dc:title>
      </cc:Work>
    </rdf:RDF>
  </metadata>
  <g
     inkscape:label="Layer 1"
     inkscape:groupmode="layer"
     id="layer1"
     transform="translate(0,-293.03125)">
    <rect
       style="opacity:1;fill:none;fill-opacity:1;stroke:none;stroke-width:0.52916664;stroke-linecap:round;stroke-linejoin:miter;stroke-miterlimit:4;stroke-dasharray:none;stroke-dashoffset:0;stroke-opacity:1;paint-order:fill markers stroke"
       id="rect846"
       width="3.96875"
       height="3.96875"
       x="0"
       y="293.03125" />
    <rect
       style="opacity:1;fill:none;fill-opacity:1;stroke:none;stroke-width:0.52916664;stroke-linecap:round;stroke-linejoin:miter;stroke-miterlimit:4;stroke-dasharray:none;stroke-dashoffset:0;stroke-opacity:1;paint-order:fill markers stroke"
       id="rect890"
       width="4.4979167"
       height="4.4979167"
       x="9.167345"
       y="304.24188" />
    <rect
       style="opacity:1;fill:none;fill-opacity:1;stroke:#ff00ff;stroke-width:0.13229166;stroke-linecap:butt;stroke-miterlimit:4;stroke-dasharray:none;stroke-dashoffset:0;stroke-opacity:1;paint-order:fill markers stroke"
       id="rect1382"
       width="5.2916665"
       height="5.2916665"
       x="-84.005135"
       y="305.27957"
       inkscape:export-filename="C:\My\Projects\Web\sibur_arenda_1.0\src\resource\img\appFormMinBtn.png"
       inkscape:export-xdpi="96"
       inkscape:export-ydpi="96" />
    <path
       style="opacity:1;fill:#efefef;fill-opacity:1;stroke:none;stroke-width:0.66145831;stroke-linecap:butt;stroke-miterlimit:4;stroke-dasharray:none;stroke-dashoffset:0;stroke-opacity:1;paint-order:fill markers stroke"
       d="m -4.209324,294.06651 a 0.53009016,0.53009016 0 0 0 0.74967,1.8e-4 l 1.740506,-1.74129 0.74948601,-0.74987 -0.74983401,-0.74947 -1.741318,-1.74051 a 0.53009016,0.53009016 0 0 0 -0.749668,-1.8e-4 0.53009016,0.53009016 0 0 0 2.23e-4,0.74965 l 1.741317,1.74051 -1.740506,1.74132 a 0.53009016,0.53009016 0 0 0 2.22e-4,0.74966 z"
       id="rect831"
       inkscape:connector-curvature="0"
       inkscape:transform-center-x="1.6979872"
       inkscape:transform-center-y="0.00050175847"
       inkscape:export-xdpi="96"
       inkscape:export-ydpi="96"
       inkscape:export-filename="C:\My\Projects\Web\sibur_arenda_1.0\src\resource\img\nextMonthIcon.png" />
    <path
       inkscape:export-ydpi="96"
       inkscape:export-xdpi="96"
       inkscape:transform-center-y="-1.2734895"
       inkscape:transform-center-x="-0.00037595099"
       inkscape:connector-curvature="0"
       id="path829"
       d="m 5.3405143,286.87491 a 0.39756745,0.39756745 0 0 1 1.35e-4,0.56225 l -1.3059669,1.30538 -0.5624023,0.56211 -0.5621022,-0.56237 -1.3053819,-1.30599 a 0.39756745,0.39756745 0 0 1 -1.35e-4,-0.56225 0.39756745,0.39756745 0 0 1 0.5622373,1.7e-4 l 1.3053818,1.30598 1.3059895,-1.30537 a 0.39756745,0.39756745 0 0 1 0.5622447,1.6e-4 z"
       style="opacity:1;fill:#16a4ab;fill-opacity:1;stroke:none;stroke-width:0.66145831;stroke-linecap:butt;stroke-miterlimit:4;stroke-dasharray:none;stroke-dashoffset:0;stroke-opacity:1;paint-order:fill markers stroke"
       inkscape:export-filename="C:\My\Projects\Web\sibur_arenda_1.0\src\resource\img\prevMonthIcon.png" />
    <path
       style="opacity:1;fill:#da6509;fill-opacity:1;stroke:none;stroke-width:0.66145837;stroke-linecap:butt;stroke-miterlimit:4;stroke-dasharray:none;stroke-dashoffset:0;stroke-opacity:1;paint-order:fill markers stroke"
       d="m -15.136667,302.29216 a 0.39755972,0.39755972 0 0 0 -0.275171,0.11626 0.39755972,0.39755972 0 0 0 0,0.56236 l 1.306095,1.30533 -1.305322,1.30609 a 0.39755972,0.39755972 0 0 0 0,0.56197 0.39755972,0.39755972 0 0 0 0.56236,3.9e-4 l 1.305319,-1.3057 -3.97e-4,-3.9e-4 h 3.97e-4 v 3.9e-4 l 1.304933,1.3057 a 0.39755972,0.39755972 0 0 0 0.562358,-3.9e-4 0.39755972,0.39755972 0 0 0 0,-0.56197 l -1.305322,-1.30609 1.306096,-1.30533 a 0.39755972,0.39755972 0 0 0 0,-0.56236 0.39755972,0.39755972 0 0 0 -0.56197,4.1e-4 l -1.306095,1.30532 h -3.97e-4 l -1.305708,-1.30532 a 0.39755972,0.39755972 0 0 0 -0.287186,-0.11667 z"
       id="path822"
       inkscape:connector-curvature="0"
       inkscape:export-filename="C:\My\Projects\Web\sibur_arenda_1.0\src\resource\img\removeRoomBtn.png"
       inkscape:export-xdpi="96"
       inkscape:export-ydpi="96" />
    <path
       inkscape:export-ydpi="96"
       inkscape:export-xdpi="96"
       inkscape:export-filename="C:\My\Projects\Web\sibur_arenda_1.0\src\resource\img\removeRoomBtnHover.png"
       inkscape:connector-curvature="0"
       id="path823"
       d="m 0.39020293,275.70109 a 0.53007926,0.53007926 0 0 0 -0.366895,0.15502 0.53007926,0.53007926 0 0 0 0,0.74981 l 1.74145897,1.74044 -1.74042797,1.74145 a 0.53007926,0.53007926 0 0 0 0,0.74929 0.53007926,0.53007926 0 0 0 0.749813,5.2e-4 l 1.74042397,-1.74093 -5.29e-4,-5.2e-4 h 5.29e-4 v 5.2e-4 l 1.73991,1.74093 a 0.53007926,0.53007926 0 0 0 0.74981,-5.2e-4 0.53007926,0.53007926 0 0 0 0,-0.74929 l -1.740428,-1.74145 1.74146,-1.74044 a 0.53007926,0.53007926 0 0 0 0,-0.74981 0.53007926,0.53007926 0 0 0 -0.749293,5.4e-4 l -1.741459,1.74043 h -5.29e-4 l -1.74094297,-1.74043 a 0.53007926,0.53007926 0 0 0 -0.382914,-0.15556 z"
       style="opacity:1;fill:#efefef;fill-opacity:1;stroke:none;stroke-width:0.66145837;stroke-linecap:butt;stroke-miterlimit:4;stroke-dasharray:none;stroke-dashoffset:0;stroke-opacity:1;paint-order:fill markers stroke" />
    <path
       inkscape:export-filename="C:\My\Projects\Web\sibur_arenda_1.0\src\resource\img\nextMonthIconHover.png"
       inkscape:export-ydpi="96"
       inkscape:export-xdpi="96"
       inkscape:transform-center-y="0.00050175847"
       inkscape:transform-center-x="1.6979872"
       inkscape:connector-curvature="0"
       id="path825"
       d="m -24.953844,308.54053 a 0.53009016,0.53009016 0 0 0 0.74967,1.8e-4 l 1.740506,-1.74129 0.749486,-0.74987 -0.749834,-0.74947 -1.741318,-1.74051 a 0.53009016,0.53009016 0 0 0 -0.749668,-1.8e-4 0.53009016,0.53009016 0 0 0 2.23e-4,0.74965 l 1.741317,1.74051 -1.740506,1.74132 a 0.53009016,0.53009016 0 0 0 2.22e-4,0.74966 z"
       style="opacity:1;fill:#16a4ab;fill-opacity:1;stroke:none;stroke-width:0.66145831;stroke-linecap:butt;stroke-miterlimit:4;stroke-dasharray:none;stroke-dashoffset:0;stroke-opacity:1;paint-order:fill markers stroke" />
    <path
       inkscape:export-filename="C:\My\Projects\Web\sibur_arenda_1.0\src\resource\img\prevMonthIconHover.png"
       style="opacity:1;fill:#16a4ab;fill-opacity:1;stroke:none;stroke-width:0.66145831;stroke-linecap:butt;stroke-miterlimit:4;stroke-dasharray:none;stroke-dashoffset:0;stroke-opacity:1;paint-order:fill markers stroke"
       d="m -5.9744549,283.2807 a 0.53009016,0.53009016 0 0 1 -0.74967,1.8e-4 l -1.740506,-1.74129 -0.749486,-0.74987 0.749834,-0.74947 1.741318,-1.74051 a 0.53009016,0.53009016 0 0 1 0.749668,-1.8e-4 0.53009016,0.53009016 0 0 1 -2.23e-4,0.74965 l -1.741317,1.74051 1.740506,1.74132 a 0.53009016,0.53009016 0 0 1 -2.22e-4,0.74966 z"
       id="path827"
       inkscape:connector-curvature="0"
       inkscape:transform-center-x="-1.6979872"
       inkscape:transform-center-y="0.00050175847"
       inkscape:export-xdpi="96"
       inkscape:export-ydpi="96" />
    <path
       style="opacity:1;fill:#16a4ab;fill-opacity:1;stroke:none;stroke-width:0.26458332px;stroke-linecap:butt;stroke-linejoin:miter;stroke-opacity:1"
       d="m -4.3714348,295.39733 c -0.07416,-0.0959 -0.173537,-0.14943 -0.276951,-0.14946 l -4.4951541,-3.6e-4 c -0.219766,1.3e-4 -0.397899,0.23727 -0.397997,0.52984 -2.04e-4,0.29286 0.178012,0.53045 0.397994,0.53058 l 4.4954061,-6.3e-4 c 0.219978,6e-5 0.398317,-0.23736 0.398267,-0.53021 -1.9e-4,-0.1433 -0.04395,-0.28039 -0.121315,-0.38003 z"
       id="path1377"
       inkscape:connector-curvature="0"
       sodipodi:nodetypes="ccccccccc"
       inkscape:export-filename="C:\My\Projects\Web\sibur_arenda_1.0\src\resource\img\appFormMinBtn.png"
       inkscape:export-xdpi="96"
       inkscape:export-ydpi="96" />
    <path
       inkscape:export-ydpi="96"
       inkscape:export-xdpi="96"
       inkscape:export-filename="C:\My\Projects\Web\sibur_arenda_1.0\src\resource\img\appFormMinBtnHvr.png"
       style="opacity:1;fill:#16a4ab;fill-opacity:1;stroke:none;stroke-width:0.26458332px;stroke-linecap:butt;stroke-linejoin:miter;stroke-opacity:1"
       d="m -61.407019,302.47015 c -0.07416,-0.0959 -0.173537,-0.14943 -0.276951,-0.14946 l -4.495154,-3.6e-4 c -0.219766,1.3e-4 -0.397899,0.23727 -0.397997,0.52984 -2.04e-4,0.29286 0.178012,0.53045 0.397994,0.53058 l 4.495406,-6.3e-4 c 0.219978,6e-5 0.398317,-0.23736 0.398267,-0.53021 -1.9e-4,-0.1433 -0.04395,-0.28039 -0.121315,-0.38003 z"
       id="path891"
       inkscape:connector-curvature="0"
       sodipodi:nodetypes="ccccccccc" />
    <path
       style="opacity:1;fill:#efefef;fill-opacity:1;stroke:none;stroke-width:0.13229166;stroke-linecap:round;stroke-linejoin:round;stroke-miterlimit:4;stroke-dasharray:none;stroke-dashoffset:0;stroke-opacity:1;paint-order:fill markers stroke"
       d="m 9.0048795,292.81926 v 0.001 c -0.01241,-1e-4 -0.02482,2.3e-4 -0.03721,10e-4 -0.01766,0.001 -0.03525,0.003 -0.05271,0.006 -0.01741,0.003 -0.03466,0.007 -0.05168,0.0119 -0.01697,0.005 -0.0337,0.0102 -0.05013,0.0165 -0.01654,0.006 -0.03275,0.0137 -0.04857,0.0217 -0.01576,0.008 -0.03111,0.0168 -0.04599,0.0263 -0.0148,0.01 -0.02912,0.02 -0.04289,0.031 -0.01383,0.0109 -0.02711,0.0224 -0.03979,0.0346 -0.01271,0.0125 -0.02478,0.0256 -0.03617,0.0393 -0.01137,0.0134 -0.02206,0.0274 -0.03204,0.0419 -0.01006,0.0147 -0.01937,0.0299 -0.0279,0.0455 -0.0085,0.0154 -0.01629,0.0313 -0.02325,0.0475 -0.0069,0.0162 -0.01289,0.0328 -0.01809,0.0496 -0.0052,0.017 -0.0095,0.0343 -0.01292,0.0517 -0.0035,0.0173 -0.0061,0.0347 -0.0078,0.0522 -0.0019,0.0175 -0.0029,0.0351 -0.0031,0.0527 v 0.5302 3.70159 c 9.8e-5,0.0124 6.31e-4,0.0248 0.0016,0.0372 0.0012,0.0177 0.0033,0.0352 0.0062,0.0527 0.0031,0.0174 0.0071,0.0347 0.01189,0.0517 0.0047,0.017 0.0102,0.0337 0.01654,0.0501 0.0064,0.0165 0.01366,0.0328 0.0217,0.0486 0.008,0.0158 0.01681,0.0311 0.02636,0.046 0.0096,0.0148 0.01996,0.0291 0.03101,0.0429 0.01087,0.0138 0.02243,0.0271 0.03462,0.0398 0.01231,0.0127 0.02524,0.0248 0.03876,0.0362 0.01358,0.0114 0.02773,0.022 0.04238,0.032 0.01451,0.01 0.02952,0.0193 0.04496,0.0279 0.01562,0.009 0.03166,0.0163 0.04806,0.0233 0.01623,0.007 0.03278,0.0129 0.04961,0.0181 0.017,0.005 0.03425,0.009 0.05168,0.0129 0.01725,0.004 0.03467,0.006 0.05219,0.008 0.01751,0.002 0.0351,0.003 0.05271,0.003 h 0.530199 3.1713835 0.531752 c 0.01259,-2.2e-4 0.02517,-8.9e-4 0.03772,-0.002 0.01766,-10e-4 0.03525,-0.003 0.05271,-0.006 0.01741,-0.003 0.03466,-0.007 0.05168,-0.0119 0.01697,-0.005 0.0337,-0.0102 0.05012,-0.0165 0.01654,-0.006 0.03275,-0.0137 0.04857,-0.0217 0.01576,-0.008 0.03111,-0.0168 0.04599,-0.0264 0.0148,-0.01 0.02912,-0.02 0.04289,-0.031 0.01383,-0.0109 0.02711,-0.0224 0.03979,-0.0346 0.0127,-0.0123 0.02477,-0.0253 0.03617,-0.0388 0.01138,-0.0136 0.02208,-0.0277 0.03204,-0.0424 0.01006,-0.0147 0.01937,-0.0299 0.0279,-0.0455 0.0084,-0.0155 0.01595,-0.0314 0.02274,-0.0476 0.0069,-0.0162 0.01289,-0.0328 0.01809,-0.0496 0.0053,-0.017 0.0098,-0.0342 0.01344,-0.0517 0.0035,-0.0173 0.0061,-0.0347 0.0078,-0.0522 2.05e-4,-0.003 3.77e-4,-0.007 5.16e-4,-0.0103 v -0.0884 -0.48421 -3.17138 -0.52968 -5.2e-4 c 1.02e-4,-0.0124 -2.31e-4,-0.0248 -0.001,-0.0372 -0.0014,-0.0177 -0.0036,-0.0353 -0.0067,-0.0527 -0.0029,-0.0174 -0.0067,-0.0347 -0.01137,-0.0517 -0.0047,-0.017 -0.0102,-0.0337 -0.01654,-0.0501 -0.0064,-0.0165 -0.01366,-0.0328 -0.0217,-0.0486 -0.008,-0.0158 -0.0168,-0.0311 -0.02635,-0.046 -0.0096,-0.0148 -0.01996,-0.0291 -0.03101,-0.0429 -0.01104,-0.0138 -0.02277,-0.0271 -0.03514,-0.0398 -0.01231,-0.0127 -0.02524,-0.0248 -0.03876,-0.0362 -0.01341,-0.0113 -0.02739,-0.022 -0.04186,-0.032 -0.01468,-0.0101 -0.02986,-0.0194 -0.04548,-0.0279 -0.01546,-0.008 -0.03133,-0.0159 -0.04754,-0.0227 -0.01622,-0.007 -0.03277,-0.0132 -0.04961,-0.0186 -0.017,-0.005 -0.03425,-0.009 -0.05168,-0.0129 -0.01725,-0.004 -0.03467,-0.006 -0.05219,-0.008 -0.01768,-0.002 -0.03545,-0.003 -0.05323,-0.003 h -0.529685 -3.7010665 -5.16e-4 z m 0.530199,1.06092 h 3.1713835 v 3.17138 h -0.698787 c 0.150854,-0.39078 -0.04547,-0.62885 -0.102878,-0.76839 0.09355,0.045 0.286694,0.20287 0.325723,0.32759 -0.0013,-1.04762 -1.420204,-1.88105 -1.774569,-1.96835 0.06415,0.18078 0.23408,0.76003 0.01191,1.41219 0.121854,-0.011 0.348307,-0.0135 0.359647,0.0285 0.13517,0.5002 -0.630021,0.76553 -1.2924295,0.96841 z"
       id="path951"
       inkscape:connector-curvature="0"
       inkscape:export-filename="C:\My\Projects\Web\sibur_arenda_1.0\src\resource\img\expandAppFormBtn.png"
       inkscape:export-xdpi="96"
       inkscape:export-ydpi="96"
       sodipodi:nodetypes="ccccccccccccccccccccccccccccccccccccccccccccccccccccccccccccccccccccccccccccccccccccccccccc" />
    <rect
       style="opacity:1;fill:none;fill-opacity:1;stroke:#000000;stroke-width:0.26458332;stroke-linecap:round;stroke-linejoin:miter;stroke-miterlimit:4;stroke-dasharray:none;stroke-dashoffset:0;stroke-opacity:1;paint-order:fill markers stroke"
       id="rect835"
       width="5.285255"
       height="5.285255"
       x="-63.759178"
       y="311.36069" />
    <path
       style="fill:none;stroke:#efefef;stroke-width:0.5291667;stroke-linecap:butt;stroke-linejoin:miter;stroke-miterlimit:4;stroke-dasharray:none;stroke-opacity:1"
       d="m -4.9275055,300.0132 0.9633379,0.7736 1.151184,-1.58863"
       id="path837"
       inkscape:connector-curvature="0"
       sodipodi:nodetypes="ccc"
       inkscape:export-filename="C:\My\Projects\Web\sibur_arenda_1.0\src\resource\img\tick.png"
       inkscape:export-xdpi="96"
       inkscape:export-ydpi="96" />
    <path
       sodipodi:nodetypes="ccc"
       inkscape:connector-curvature="0"
       id="path839"
       d="m 0.37147744,302.49496 0.96333796,0.7736 1.151184,-1.58863"
       style="fill:none;stroke:#16a4ab;stroke-width:0.5291667;stroke-linecap:butt;stroke-linejoin:miter;stroke-miterlimit:4;stroke-dasharray:none;stroke-opacity:1"
       inkscape:export-filename="C:\My\Projects\Web\sibur_arenda_1.0\src\resource\img\tickHvr.png"
       inkscape:export-xdpi="96"
       inkscape:export-ydpi="96" />
    <path
       style="opacity:1;fill:#16a4ab;fill-opacity:1;stroke:none;stroke-width:0.66145837;stroke-linecap:butt;stroke-miterlimit:4;stroke-dasharray:none;stroke-dashoffset:0;stroke-opacity:1;paint-order:fill markers stroke"
       d="m 11.402192,285.0938 a 0.53007926,0.53007926 0 0 0 -0.366895,0.15502 0.53007926,0.53007926 0 0 0 0,0.74981 l 1.741459,1.74044 -1.740428,1.74145 a 0.53007926,0.53007926 0 0 0 0,0.74929 0.53007926,0.53007926 0 0 0 0.749813,5.2e-4 l 1.740424,-1.74093 -5.29e-4,-5.2e-4 h 5.29e-4 v 5.2e-4 l 1.73991,1.74093 a 0.53007926,0.53007926 0 0 0 0.74981,-5.2e-4 0.53007926,0.53007926 0 0 0 0,-0.74929 l -1.740428,-1.74145 1.74146,-1.74044 a 0.53007926,0.53007926 0 0 0 0,-0.74981 0.53007926,0.53007926 0 0 0 -0.749293,5.4e-4 l -1.741459,1.74043 h -5.29e-4 l -1.740943,-1.74043 a 0.53007926,0.53007926 0 0 0 -0.382914,-0.15556 z"
       id="path1964"
       inkscape:connector-curvature="0"
       inkscape:export-filename="C:\My\Projects\Web\sibur_arenda_1.0\src\resource\img\removeRoomBtnHover.png"
       inkscape:export-xdpi="96"
       inkscape:export-ydpi="96" />
    <path
       sodipodi:nodetypes="ccccccccccccccccccccccccccccccccccccccccccccccccccccccccccccccccccccccccccccccccccccccccccc"
       inkscape:export-ydpi="96"
       inkscape:export-xdpi="96"
       inkscape:export-filename="C:\My\Projects\Web\sibur_arenda_1.0\src\resource\img\expandAppFormBtn.png"
       inkscape:connector-curvature="0"
       id="path1966"
       d="m -13.360506,286.2173 v 10e-4 c -0.01241,-10e-5 -0.02482,2.3e-4 -0.03721,10e-4 -0.01766,0.001 -0.03525,0.003 -0.05271,0.006 -0.01741,0.003 -0.03466,0.007 -0.05168,0.0119 -0.01697,0.005 -0.0337,0.0102 -0.05013,0.0165 -0.01654,0.006 -0.03275,0.0137 -0.04857,0.0217 -0.01576,0.008 -0.03111,0.0168 -0.04599,0.0263 -0.0148,0.01 -0.02912,0.02 -0.04289,0.031 -0.01383,0.0109 -0.02711,0.0224 -0.03979,0.0346 -0.01271,0.0125 -0.02478,0.0256 -0.03617,0.0393 -0.01137,0.0134 -0.02206,0.0274 -0.03204,0.0419 -0.01006,0.0147 -0.01937,0.0299 -0.0279,0.0455 -0.0085,0.0154 -0.01629,0.0313 -0.02325,0.0475 -0.0069,0.0162 -0.01289,0.0328 -0.01809,0.0496 -0.0052,0.017 -0.0095,0.0343 -0.01292,0.0517 -0.0035,0.0173 -0.0061,0.0347 -0.0078,0.0522 -0.0019,0.0175 -0.0029,0.0351 -0.0031,0.0527 v 0.5302 3.70159 c 9.8e-5,0.0124 6.31e-4,0.0248 0.0016,0.0372 0.0012,0.0177 0.0033,0.0352 0.0062,0.0527 0.0031,0.0174 0.0071,0.0347 0.01189,0.0517 0.0047,0.017 0.0102,0.0337 0.01654,0.0501 0.0064,0.0165 0.01366,0.0328 0.0217,0.0486 0.008,0.0158 0.01681,0.0311 0.02636,0.046 0.0096,0.0148 0.01996,0.0291 0.03101,0.0429 0.01087,0.0138 0.02243,0.0271 0.03462,0.0398 0.01231,0.0127 0.02524,0.0248 0.03876,0.0362 0.01358,0.0114 0.02773,0.022 0.04238,0.032 0.01451,0.01 0.02952,0.0193 0.04496,0.0279 0.01562,0.009 0.03166,0.0163 0.04806,0.0233 0.01623,0.007 0.03278,0.0129 0.04961,0.0181 0.017,0.005 0.03425,0.009 0.05168,0.0129 0.01725,0.004 0.03467,0.006 0.05219,0.008 0.01751,0.002 0.0351,0.003 0.05271,0.003 h 0.530199 3.1713827 0.531752 c 0.01259,-2.2e-4 0.02517,-8.9e-4 0.03772,-0.002 0.01766,-10e-4 0.03525,-0.003 0.05271,-0.006 0.01741,-0.003 0.03466,-0.007 0.05168,-0.0119 0.01697,-0.005 0.0337,-0.0102 0.05012,-0.0165 0.01654,-0.006 0.03275,-0.0137 0.04857,-0.0217 0.01576,-0.008 0.03111,-0.0168 0.04599,-0.0264 0.0148,-0.01 0.02912,-0.02 0.04289,-0.031 0.01383,-0.0109 0.02711,-0.0224 0.03979,-0.0346 0.0127,-0.0123 0.02477,-0.0253 0.03617,-0.0388 0.01138,-0.0136 0.02208,-0.0277 0.03204,-0.0424 0.01006,-0.0147 0.01937,-0.0299 0.0279,-0.0455 0.0084,-0.0155 0.01595,-0.0314 0.02274,-0.0476 0.0069,-0.0162 0.01289,-0.0328 0.01809,-0.0496 0.0053,-0.017 0.0098,-0.0342 0.01344,-0.0517 0.0035,-0.0173 0.0061,-0.0347 0.0078,-0.0522 2.05e-4,-0.003 3.77e-4,-0.007 5.16e-4,-0.0103 v -0.0884 -0.48421 -3.17138 -0.52968 -5.2e-4 c 1.02e-4,-0.0124 -2.31e-4,-0.0248 -10e-4,-0.0372 -0.0014,-0.0177 -0.0036,-0.0353 -0.0067,-0.0527 -0.0029,-0.0174 -0.0067,-0.0347 -0.01137,-0.0517 -0.0047,-0.017 -0.0102,-0.0337 -0.01654,-0.0501 -0.0064,-0.0165 -0.01366,-0.0328 -0.0217,-0.0486 -0.008,-0.0158 -0.0168,-0.0311 -0.02635,-0.046 -0.0096,-0.0148 -0.01996,-0.0291 -0.03101,-0.0429 -0.01104,-0.0138 -0.02277,-0.0271 -0.03514,-0.0398 -0.01231,-0.0127 -0.02524,-0.0248 -0.03876,-0.0362 -0.01341,-0.0113 -0.02739,-0.022 -0.04186,-0.032 -0.01468,-0.0101 -0.02986,-0.0194 -0.04548,-0.0279 -0.01546,-0.008 -0.03133,-0.0159 -0.04754,-0.0227 -0.01622,-0.007 -0.03277,-0.0132 -0.04961,-0.0186 -0.017,-0.005 -0.03425,-0.009 -0.05168,-0.0129 -0.01725,-0.004 -0.03467,-0.006 -0.05219,-0.008 -0.01768,-0.002 -0.03545,-0.003 -0.05323,-0.003 h -0.529685 -3.7010657 -5.16e-4 z m 0.530199,1.06092 h 3.1713827 v 3.17138 h -0.6987867 c 0.150854,-0.39078 -0.04547,-0.62885 -0.102878,-0.76839 0.09355,0.045 0.286694,0.20287 0.325723,0.32759 -0.0013,-1.04762 -1.420204,-1.88105 -1.774569,-1.96835 0.06415,0.18078 0.23408,0.76003 0.01191,1.41219 0.121854,-0.011 0.348307,-0.0135 0.359647,0.0285 0.13517,0.5002 -0.630021,0.76553 -1.292429,0.96841 z"
       style="opacity:1;fill:#16a4ab;fill-opacity:1;stroke:none;stroke-width:0.13229166;stroke-linecap:round;stroke-linejoin:round;stroke-miterlimit:4;stroke-dasharray:none;stroke-dashoffset:0;stroke-opacity:1;paint-order:fill markers stroke" />
    <path
       inkscape:export-filename="C:\My\Projects\Web\sibur_arenda_1.0\src\resource\img\prevMonthIcon.png"
       style="opacity:1;fill:#efefef;fill-opacity:1;stroke:none;stroke-width:0.66145831;stroke-linecap:butt;stroke-miterlimit:4;stroke-dasharray:none;stroke-dashoffset:0;stroke-opacity:1;paint-order:fill markers stroke"
       d="m 21.379168,308.8592 a 0.53009016,0.53009016 0 0 1 -0.74967,1.8e-4 l -1.740506,-1.74129 -0.749486,-0.74987 0.749834,-0.74947 1.741318,-1.74051 a 0.53009016,0.53009016 0 0 1 0.749668,-1.8e-4 0.53009016,0.53009016 0 0 1 -2.23e-4,0.74965 l -1.741317,1.74051 1.740506,1.74132 a 0.53009016,0.53009016 0 0 1 -2.22e-4,0.74966 z"
       id="path835"
       inkscape:connector-curvature="0"
       inkscape:transform-center-x="-1.6979872"
       inkscape:transform-center-y="0.00050175847"
       inkscape:export-xdpi="96"
       inkscape:export-ydpi="96" />
    <circle
       style="opacity:1;fill:#16a4ab;fill-opacity:1;stroke:none;stroke-width:0.52916664;stroke-linecap:round;stroke-linejoin:miter;stroke-miterlimit:4;stroke-dasharray:none;stroke-dashoffset:0;stroke-opacity:1;paint-order:fill markers stroke"
       id="path836"
       cx="-16.715092"
       cy="295.24011"
       r="1.0583333" />
    <path
       style="fill:#ff0000;stroke:none;stroke-width:0.26458332px;stroke-linecap:butt;stroke-linejoin:miter;stroke-opacity:1"
       d="m 11.416338,304.72694 a 0.3693981,0.3693981 0 0 0 -0.03721,0.002 0.3693981,0.3693981 0 0 0 -0.03617,0.006 0.3693981,0.3693981 0 0 0 -0.03617,0.009 0.3693981,0.3693981 0 0 0 -0.03462,0.0124 0.3693981,0.3693981 0 0 0 -0.03307,0.016 0.3693981,0.3693981 0 0 0 -0.03152,0.0196 0.3693981,0.3693981 0 0 0 -0.02946,0.0222 0.3693981,0.3693981 0 0 0 -0.02687,0.0253 0.3693981,0.3693981 0 0 0 -0.02429,0.0279 0.3693981,0.3693981 0 0 0 -0.02119,0.03 l -0.01757,0.03 -1.5931847,2.75952 c -0.074353,0.1161 -0.077747,0.26403 -0.00878,0.38344 0.069101,0.11933 0.1986778,0.19052 0.3364136,0.18397 h 3.1848191 c 0.137824,0.007 0.269853,-0.0646 0.338998,-0.18397 0.0691,-0.11965 0.06539,-0.26823 -0.0093,-0.38447 l -1.592668,-2.75849 -0.0186,-0.032 a 0.3693981,0.3693981 0 0 0 -0.0217,-0.03 0.3693981,0.3693981 0 0 0 -0.02429,-0.0279 0.3693981,0.3693981 0 0 0 -0.02739,-0.0248 0.3693981,0.3693981 0 0 0 -0.02946,-0.0222 0.3693981,0.3693981 0 0 0 -0.03152,-0.0191 0.3693981,0.3693981 0 0 0 -0.03307,-0.016 0.3693981,0.3693981 0 0 0 -0.03514,-0.0124 0.3693981,0.3693981 0 0 0 -0.03566,-0.009 0.3693981,0.3693981 0 0 0 -0.03669,-0.005 0.3693981,0.3693981 0 0 0 -0.03462,-0.002 z"
       id="path874"
       inkscape:connector-curvature="0" />
    <g
       id="g920"
       transform="matrix(0.54009254,0,0,0.54009254,8.2200431,146.60755)"
       style="fill:#ffffff;stroke-width:1.85153449">
      <path
         id="path905"
         transform="matrix(0.26458333,0,0,0.26458333,0,292.50208)"
         d="m 22.367188,7.7265625 c -1.181537,0.044511 -2.127617,1.0105467 -2.126954,2.203125 0.263895,3.5854345 0.968763,6.2948755 1.5625,8.5332035 0.04503,0.169752 0.09898,0.246544 0.203125,0.357421 0.01707,0.01818 0.04103,0.02833 0.0625,0.04102 0.02157,0.01275 0.04374,0.02445 0.06641,0.03516 0.02297,0.01085 0.04627,0.02109 0.07031,0.0293 0.02363,0.0081 0.04792,0.014 0.07227,0.01953 0.02455,0.0056 0.04926,0.01043 0.07422,0.01367 0.0052,6.8e-4 0.01041,0.0014 0.01563,0.002 0.0053,-6.05e-4 0.01041,-0.0013 0.01562,-0.002 0.02496,-0.0038 0.04965,-0.0099 0.07422,-0.01367 0.02435,-0.0038 0.04864,-0.01197 0.07227,-0.01953 0.02404,-0.0076 0.04733,-0.01796 0.07031,-0.0293 0.02267,-0.01134 0.04483,-0.02382 0.06641,-0.03516 0.02147,-0.01474 0.04542,-0.02212 0.0625,-0.04102 0.104145,-0.111118 0.158095,-0.187721 0.203125,-0.357421 0.593737,-2.238312 1.298605,-4.947755 1.5625,-8.5332035 6.63e-4,-1.1925921 -0.945416,-2.1585266 -2.126953,-2.203125 z"
         style="opacity:1;fill:#ffffff;fill-opacity:1;stroke:none;stroke-width:3.70306897;stroke-linecap:round;stroke-linejoin:miter;stroke-miterlimit:4;stroke-dasharray:none;stroke-dashoffset:0;stroke-opacity:1;paint-order:fill markers stroke"
         inkscape:connector-curvature="0" />
      <circle
         r="0.3175"
         cy="297.92987"
         cx="5.917985"
         id="path915"
         style="opacity:1;fill:#ffffff;fill-opacity:1;stroke:none;stroke-width:0.9797703;stroke-linecap:round;stroke-linejoin:miter;stroke-miterlimit:4;stroke-dasharray:none;stroke-dashoffset:0;stroke-opacity:1;paint-order:fill markers stroke" />
    </g>
    <path
       style="opacity:1;fill:#16a4ab;fill-opacity:1;stroke:none;stroke-width:0.52916658;stroke-linecap:round;stroke-linejoin:miter;stroke-miterlimit:4;stroke-dasharray:none;stroke-dashoffset:0;stroke-opacity:1;paint-order:fill markers stroke"
       d="m 1.984375,293.16354 a 1.8520833,1.8520833 0 0 0 -1.85208332,1.85209 1.8520833,1.8520833 0 0 0 1.85208332,1.85208 1.8520833,1.8520833 0 0 0 1.8520833,-1.85208 1.8520833,1.8520833 0 0 0 -1.8520833,-1.85209 z m 0,0.40463 a 0.33072916,0.33072916 0 0 1 0.3307291,0.33073 0.33072916,0.33072916 0 0 1 -0.3307291,0.33073 0.33072916,0.33072916 0 0 1 -0.3307292,-0.33073 0.33072916,0.33072916 0 0 1 0.3307292,-0.33073 z m -0.3622518,0.99529 h 0.098185 0.5291667 0.097152 v 0.19895 h -0.097669 v 1.50172 h 0.097669 v 0.19895 H 2.2489583 1.7197916 1.6221232 v -0.19895 h 0.097668 v -1.50172 h -0.097668 z"
       id="path842"
       inkscape:connector-curvature="0" />
  </g>
</svg>
