<?xml version="1.0" encoding="UTF-8" standalone="no"?>
<!-- Created with Inkscape (http://www.inkscape.org/) -->

<svg
   xmlns:dc="http://purl.org/dc/elements/1.1/"
   xmlns:cc="http://creativecommons.org/ns#"
   xmlns:rdf="http://www.w3.org/1999/02/22-rdf-syntax-ns#"
   xmlns:svg="http://www.w3.org/2000/svg"
   xmlns="http://www.w3.org/2000/svg"
   xmlns:xlink="http://www.w3.org/1999/xlink"
   xmlns:sodipodi="http://sodipodi.sourceforge.net/DTD/sodipodi-0.dtd"
   xmlns:inkscape="http://www.inkscape.org/namespaces/inkscape"
   width="52"
   height="31"
   viewBox="0 0 13.758334 8.2020836"
   version="1.1"
   id="svg8"
   inkscape:version="0.92.4 (5da689c313, 2019-01-14)"
   sodipodi:docname="sendBird.svg">
  <defs
     id="defs2">
    <linearGradient
       inkscape:collect="always"
       id="linearGradient2186">
      <stop
         style="stop-color:#fd7608;stop-opacity:1"
         offset="0"
         id="stop2182" />
      <stop
         id="stop2190"
         offset="0.50939119"
         style="stop-color:#f6bb2f;stop-opacity:1" />
      <stop
         style="stop-color:#fd7608;stop-opacity:1"
         offset="1"
         id="stop2184" />
    </linearGradient>
    <linearGradient
       inkscape:collect="always"
       id="linearGradient2178">
      <stop
         style="stop-color:#ffffff;stop-opacity:1"
         offset="0"
         id="stop2174" />
      <stop
         style="stop-color:#ffffff;stop-opacity:0"
         offset="1"
         id="stop2176" />
    </linearGradient>
    <linearGradient
       inkscape:collect="always"
       id="linearGradient2163">
      <stop
         style="stop-color:#ffffff;stop-opacity:0.5"
         offset="0"
         id="stop2159" />
      <stop
         style="stop-color:#ffffff;stop-opacity:0"
         offset="1"
         id="stop2161" />
    </linearGradient>
    <linearGradient
       inkscape:collect="always"
       xlink:href="#linearGradient2163"
       id="linearGradient2167"
       gradientUnits="userSpaceOnUse"
       x1="-31.522865"
       y1="74.210419"
       x2="-19.445354"
       y2="96.661064" />
    <linearGradient
       inkscape:collect="always"
       xlink:href="#linearGradient2178"
       id="linearGradient2180"
       x1="-0.34028009"
       y1="67.335655"
       x2="-3.4061608"
       y2="76.881592"
       gradientUnits="userSpaceOnUse" />
    <linearGradient
       inkscape:collect="always"
       xlink:href="#linearGradient2186"
       id="linearGradient2188"
       x1="5.9349265"
       y1="120.03413"
       x2="15.932644"
       y2="80.259377"
       gradientUnits="userSpaceOnUse" />
  </defs>
  <sodipodi:namedview
     id="base"
     pagecolor="#ffffff"
     bordercolor="#666666"
     borderopacity="1.0"
     inkscape:pageopacity="0.0"
     inkscape:pageshadow="2"
     inkscape:zoom="0.5"
     inkscape:cx="-179.73358"
     inkscape:cy="268.49146"
     inkscape:document-units="mm"
     inkscape:current-layer="layer1"
     showgrid="false"
     inkscape:snap-bbox="true"
     inkscape:snap-bbox-midpoints="true"
     inkscape:snap-object-midpoints="true"
     inkscape:snap-smooth-nodes="true"
     inkscape:object-nodes="true"
     inkscape:snap-nodes="true"
     inkscape:snap-intersection-paths="true"
     inkscape:object-paths="true"
     inkscape:snap-bbox-edge-midpoints="true"
     inkscape:snap-midpoints="true"
     inkscape:bbox-nodes="true"
     inkscape:bbox-paths="true"
     inkscape:snap-center="true"
     inkscape:window-width="1920"
     inkscape:window-height="1001"
     inkscape:window-x="-9"
     inkscape:window-y="-9"
     inkscape:window-maximized="1"
     inkscape:snap-global="true"
     units="px"
     inkscape:snap-page="true"
     inkscape:showpageshadow="false" />
  <metadata
     id="metadata5">
    <rdf:RDF>
      <cc:Work
         rdf:about="">
        <dc:format>image/svg+xml</dc:format>
        <dc:type
           rdf:resource="http://purl.org/dc/dcmitype/StillImage" />
        <dc:title></dc:title>
      </cc:Work>
    </rdf:RDF>
  </metadata>
  <g
     inkscape:label="Layer 1"
     inkscape:groupmode="layer"
     id="layer1"
     transform="translate(0,-288.79791)">
    <rect
       style="opacity:1;fill:none;fill-opacity:1;stroke:none;stroke-width:0.52916658;stroke-linecap:round;stroke-linejoin:miter;stroke-miterlimit:4;stroke-dasharray:none;stroke-dashoffset:0;stroke-opacity:1;paint-order:fill markers stroke"
       id="rect2301"
       width="13.757837"
       height="8.2020807"
       x="0.00049559667"
       y="288.79791"
       transform="translate(0,-9.3351934e-5)" />
    <g
       id="g2299"
       transform="matrix(0.30860005,0,0,0.30860005,6.4511896,193.8757)"
       style="stroke-width:3.24044013">
      <rect
         y="307.8479"
         x="-20.903509"
         height="26.061457"
         width="44.582291"
         id="rect2199"
         style="opacity:1;fill:#efefef;fill-opacity:1;stroke:none;stroke-width:0.17147326;stroke-linecap:round;stroke-linejoin:miter;stroke-miterlimit:4;stroke-dasharray:none;stroke-dashoffset:0;stroke-opacity:1;paint-order:fill markers stroke" />
      <path
         inkscape:connector-curvature="0"
         id="rect2201"
         d="m -20.635417,307.89722 a 0.26460974,0.26460974 0 0 0 -0.164331,0.47026 l 15.3334313,12.50879 -15.3334313,12.5088 a 0.26460974,0.26460974 0 1 0 0.33383,0.41031 l 15.4186971,-12.57701 4.56406237,3.72329 c 0.19995454,0.1631 0.41772021,0.29596 0.64647215,0.39997 a 0.26460974,0.26460974 0 0 0 0.03514,0.0181 c 0.005619,0.002 0.0114239,0.004 0.0170532,0.007 0.37686972,0.16264 0.77609747,0.24301 1.17305498,0.24288 8.62e-4,0 0.00172,0 0.00258,0 0.3968023,1.3e-4 0.7957985,-0.0804 1.1725383,-0.24288 0.00578,-0.002 0.011804,-0.004 0.01757,-0.007 a 0.26460974,0.26460974 0 0 0 0.035657,-0.0186 c 0.2284119,-0.10395 0.4462714,-0.23658 0.6459554,-0.39946 l 4.5650959,-3.72381 15.4171456,12.57753 a 0.2651338,0.2651338 0 0 0 0.335897,-0.41031 L 8.2465409,320.87627 23.581005,308.36748 a 0.26460974,0.26460974 0 0 0 -0.171565,-0.47026 0.26460974,0.26460974 0 0 0 -0.164332,0.062 l -20.3160718,16.5747 c -0.1736768,0.14167 -0.3641055,0.25538 -0.5637898,0.34261 -0.08164,0.0357 -0.1652777,0.0631 -0.2490804,0.0894 -0.023693,0.007 -0.046396,0.0181 -0.07028,0.0248 -0.1039792,0.0291 -0.2095194,0.0506 -0.3152262,0.0656 -0.00315,4.4e-4 -0.00615,0.002 -0.0093,0.002 -0.078077,0.0107 -0.1562683,0.0129 -0.234611,0.016 -0.031934,0.001 -0.063609,0.007 -0.095601,0.007 -0.1114173,6e-5 -0.2226636,-0.008 -0.3327962,-0.0227 -0.042836,-0.006 -0.0850191,-0.0182 -0.12764076,-0.0264 -0.0649285,-0.0125 -0.13014248,-0.0229 -0.19430339,-0.0408 -0.0419148,-0.0117 -0.082199,-0.0295 -0.12350667,-0.0434 -0.0654625,-0.0221 -0.13126969,-0.0424 -0.1953369,-0.0703 -0.20027542,-0.0874 -0.39053838,-0.20148 -0.56482341,-0.34365 L -20.465918,307.95923 a 0.26460974,0.26460974 0 0 0 -0.169499,-0.062 z"
         style="color:#000000;font-style:normal;font-variant:normal;font-weight:normal;font-stretch:normal;font-size:medium;line-height:normal;font-family:sans-serif;font-variant-ligatures:normal;font-variant-position:normal;font-variant-caps:normal;font-variant-numeric:normal;font-variant-alternates:normal;font-feature-settings:normal;text-indent:0;text-align:start;text-decoration:none;text-decoration-line:none;text-decoration-style:solid;text-decoration-color:#000000;letter-spacing:normal;word-spacing:normal;text-transform:none;writing-mode:lr-tb;direction:ltr;text-orientation:mixed;dominant-baseline:auto;baseline-shift:baseline;text-anchor:start;white-space:normal;shape-padding:0;clip-rule:nonzero;display:inline;overflow:visible;visibility:visible;opacity:1;isolation:auto;mix-blend-mode:normal;color-interpolation:sRGB;color-interpolation-filters:linearRGB;solid-color:#000000;solid-opacity:1;vector-effect:none;fill:#727272;fill-opacity:1;fill-rule:nonzero;stroke:none;stroke-width:1.71473265;stroke-linecap:round;stroke-linejoin:miter;stroke-miterlimit:4;stroke-dasharray:none;stroke-dashoffset:0;stroke-opacity:1;paint-order:fill markers stroke;color-rendering:auto;image-rendering:auto;shape-rendering:auto;text-rendering:auto;enable-background:accumulate" />
      <g
         transform="translate(3.7510574,3.8145134)"
         id="g2197"
         style="stroke-width:3.24044013">
        <path
           style="opacity:1;fill:url(#linearGradient2188);fill-opacity:1;stroke:none;stroke-width:3.24043989px;stroke-linecap:butt;stroke-linejoin:miter;stroke-opacity:1"
           d="m 6.0996094,73.570312 -11.1367188,6.384766 c 3.3982212,1.465546 6.2343985,3.723476 8.019914,6.631472 0.9345834,1.522118 1.5959858,3.125452 2.0992266,4.839231 0.4858782,1.654651 0.8338549,3.405156 0.7070313,5.125 -0.1710798,2.319998 -0.8612269,4.565009 -2.165518,6.297989 -0.8518107,1.13178 -1.8772528,2.16723 -3.0922945,2.89537 -2.6190002,1.5695 -5.7271921,2.25455 -8.5300246,2.47438 -1.8504368,0.14513 -3.5797794,0.15389 -5.4357764,0.13259 -3.136405,-0.036 -6.651381,-0.51174 -9.358418,-1.189 l -2.03125,9.875 c 4.728387,3.08168 10.248617,4.72683 15.8925784,4.73633 C 7.1929439,121.7727 20.264016,108.70076 20.263672,92.576172 20.251236,86.455645 18.31565,80.493796 14.730469,75.533203 Z"
           transform="matrix(0.26458333,0,0,0.26458333,0,292.50155)"
           id="path1459"
           inkscape:connector-curvature="0"
           sodipodi:nodetypes="ccssssssscccccc" />
        <path
           inkscape:connector-curvature="0"
           style="opacity:1;fill:#16979a;fill-opacity:1;stroke:none;stroke-width:3.24043989px;stroke-linecap:butt;stroke-linejoin:miter;stroke-opacity:1"
           d="m -31.333984,73.859375 a 29.196646,29.196646 0 0 0 -6.794922,18.716797 29.196646,29.196646 0 0 0 29.1972654,29.197268 29.196646,29.196646 0 0 0 21.7910156,-9.8086 C 11.929116,112.8506 9.6942198,114.29766 8,115.00195 c -1.3483884,0.56054 -2.7452644,0.83384 -4.1875,1.0625 -1.7738433,0.2812 -3.39300522,0.39467 -5.1875,0.46875 -1.6237528,0.066 -4.223379,-0.17512 -5.8359375,-0.37695 C -12.12728,115.54083 -25.31905,109.82448 -22.75,104.31445 c 1.52511,-3.27099 7.588508,-0.10672 11.15625,-1.8125 2.914772,-1.39362 4.4627489,-5.01491 3.71875,-8.249997 -0.331621,-1.441965 -1.3641215,-2.669546 -2.375,-3.75 -0.916703,-0.979805 -2.082707,-1.713356 -3.25,-2.375 -2.046688,-1.160088 -4.3656,-1.76052 -6.5,-2.75 -3.705188,-1.717682 -8.580775,-3.387625 -11.0625,-7.25 -0.768311,-1.195744 -0.276369,-4.237555 -0.271484,-4.267578 z"
           transform="matrix(0.26458333,0,0,0.26458333,0,292.50155)"
           id="path1435" />
        <path
           inkscape:connector-curvature="0"
           style="opacity:1;fill:url(#linearGradient2167);fill-opacity:1;stroke:none;stroke-width:3.24043989px;stroke-linecap:butt;stroke-linejoin:miter;stroke-opacity:1"
           d="m -31.332031,73.849609 -0.002,0.0039 c -0.98371,2.051414 -1.223282,4.678515 -1.148438,6.74414 0.14787,4.081172 1.553548,7.722962 4.066406,10.47461 0.808077,0.884863 1.661835,1.738508 2.607422,2.474609 1.718922,1.338104 3.77105,2.490747 5.804688,3.271484 2.749705,1.055622 5.146026,0.686235 7.011718,1.589844 0.517687,0.250583 1.254304,0.858896 1.478516,1.388672 0.361701,0.854662 -0.08008,2.705072 -0.08008,2.705072 2.914772,-1.39362 4.4627489,-5.014907 3.71875,-8.249994 -0.331621,-1.441965 -1.3641215,-2.669546 -2.375,-3.75 -0.916703,-0.979805 -2.082707,-1.713356 -3.25,-2.375 -2.046688,-1.160088 -4.3656,-1.76052 -6.5,-2.75 -3.705188,-1.717682 -8.580775,-3.387625 -11.0625,-7.25 -0.772114,-1.201663 -0.269531,-4.277344 -0.269531,-4.277344 z"
           transform="matrix(0.26458333,0,0,0.26458333,0,292.50155)"
           id="path1461" />
        <path
           inkscape:connector-curvature="0"
           style="opacity:1;fill:#16979a;fill-opacity:1;stroke:none;stroke-width:3.24043989px;stroke-linecap:butt;stroke-linejoin:miter;stroke-opacity:1"
           d="m -6.1660156,63.896484 c -0.4883118,0.0013 -0.9539318,0.0121 -1.3300782,0.04102 -3.3706602,0.258898 -7.0893972,1.637348 -8.0566402,4.765625 -1.665737,5.387339 0.757399,9.32234 5.9511715,10.849609 2.0859572,0.61338 4.8147878,0.364601 6.7988281,0.345704 5.8048942,-0.05518 12.3211282,0.63549 16.8964844,4.134765 1.759148,1.345399 3.339625,2.680469 4.3125,4.28125 0.586802,0.965518 0.875246,2.081633 1.171875,3.171875 0.399938,1.469963 0.496099,2.76972 0.486328,4.363281 A 29.196646,29.196646 0 0 0 20.263672,92.576172 29.196646,29.196646 0 0 0 -3.0664062,63.978516 c -0.035803,-0.0019 -1.6507421,-0.08603 -3.0996094,-0.08203 z"
           transform="matrix(0.26458333,0,0,0.26458333,0,292.50155)"
           id="path1457" />
        <path
           inkscape:connector-curvature="0"
           style="opacity:0.2;fill:url(#linearGradient2180);fill-opacity:1;stroke:none;stroke-width:3.24043989px;stroke-linecap:butt;stroke-linejoin:miter;stroke-opacity:1"
           d="m -6.1660156,63.896484 c -0.4883118,0.0013 -0.9539318,0.0121 -1.3300782,0.04102 -3.3706602,0.258898 -7.0893972,1.637348 -8.0566402,4.765625 -1.665737,5.387339 0.757399,9.32234 5.9511715,10.849609 2.0859572,0.61338 4.8147878,0.3646 6.7988281,0.345704 5.8048942,-0.05518 12.3211283,0.63549 16.8964844,4.134765 0,0 0.03704,-3.393959 -0.34375,-5.03125 -0.423279,-1.820031 -1.145437,-3.596205 -2.125,-5.1875 -0.766436,-1.245052 -1.8195393,-2.300796 -2.875,-3.3125 -1.8675511,-1.790173 -3.8526099,-3.030424 -6,-4.0625 -1.1687178,-0.561713 -2.3663163,-1.061939 -3.5625,-1.5625 -0.7461014,-0.312189 -2.2539063,-0.898437 -2.2539062,-0.898437 -0.035803,-0.0019 -1.6507421,-0.08603 -3.0996094,-0.08203 z"
           transform="matrix(0.26458333,0,0,0.26458333,0,292.50155)"
           id="path2169" />
      </g>
    </g>
  </g>
</svg>
