<?xml version="1.0" encoding="UTF-8" standalone="no"?>
<!-- Created with Inkscape (http://www.inkscape.org/) -->

<svg
   xmlns:dc="http://purl.org/dc/elements/1.1/"
   xmlns:cc="http://creativecommons.org/ns#"
   xmlns:rdf="http://www.w3.org/1999/02/22-rdf-syntax-ns#"
   xmlns:svg="http://www.w3.org/2000/svg"
   xmlns="http://www.w3.org/2000/svg"
   xmlns:sodipodi="http://sodipodi.sourceforge.net/DTD/sodipodi-0.dtd"
   xmlns:inkscape="http://www.inkscape.org/namespaces/inkscape"
   width="22"
   height="22"
   viewBox="0 0 5.8208331 5.8208335"
   version="1.1"
   id="svg8"
   inkscape:version="0.92.4 (5da689c313, 2019-01-14)"
   sodipodi:docname="warning.svg">
  <defs
     id="defs2">
    <inkscape:path-effect
       effect="powerstroke"
       id="path-effect10814"
       is_visible="true"
       offset_points="9.9974787,1.8731999"
       sort_points="true"
       interpolator_type="CubicBezierJohan"
       interpolator_beta="0.2"
       start_linecap_type="zerowidth"
       linejoin_type="extrp_arc"
       miter_limit="4"
       end_linecap_type="zerowidth" />
    <inkscape:path-effect
       effect="spiro"
       id="path-effect10812"
       is_visible="true" />
    <inkscape:path-effect
       effect="skeletal"
       id="path-effect857"
       is_visible="true"
       pattern="M 0,5 C 0,2.24 2.24,0 5,0 7.76,0 10,2.24 10,5 10,7.76 7.76,10 5,10 2.24,10 0,7.76 0,5 Z"
       copytype="single_stretched"
       prop_scale="0.019495783"
       scale_y_rel="false"
       spacing="0"
       normal_offset="0"
       tang_offset="0"
       prop_units="false"
       vertical_pattern="false"
       fuse_tolerance="0" />
  </defs>
  <sodipodi:namedview
     id="base"
     pagecolor="#ffffff"
     bordercolor="#666666"
     borderopacity="1.0"
     inkscape:pageopacity="0.0"
     inkscape:pageshadow="2"
     inkscape:zoom="0.70710675"
     inkscape:cx="-612.08538"
     inkscape:cy="186.57143"
     inkscape:document-units="mm"
     inkscape:current-layer="layer1"
     showgrid="false"
     showguides="true"
     inkscape:object-paths="true"
     inkscape:snap-smooth-nodes="true"
     inkscape:snap-intersection-paths="true"
     inkscape:snap-center="true"
     inkscape:window-width="1920"
     inkscape:window-height="1001"
     inkscape:window-x="-9"
     inkscape:window-y="-9"
     inkscape:window-maximized="1"
     inkscape:snap-global="true"
     inkscape:snap-bbox="true"
     inkscape:bbox-paths="true"
     inkscape:snap-bbox-edge-midpoints="true"
     inkscape:snap-bbox-midpoints="true"
     inkscape:bbox-nodes="true"
     units="px"
     inkscape:showpageshadow="false"
     inkscape:snap-page="true"
     inkscape:snap-object-midpoints="true"
     inkscape:snap-nodes="true"
     inkscape:snap-midpoints="true" />
  <metadata
     id="metadata5">
    <rdf:RDF>
      <cc:Work
         rdf:about="">
        <dc:format>image/svg+xml</dc:format>
        <dc:type
           rdf:resource="http://purl.org/dc/dcmitype/StillImage" />
        <dc:title></dc:title>
      </cc:Work>
    </rdf:RDF>
  </metadata>
  <g
     inkscape:label="Layer 1"
     inkscape:groupmode="layer"
     id="layer1"
     transform="translate(0,-291.17916)">
    <rect
       style="opacity:1;fill:none;fill-opacity:1;stroke:none;stroke-width:0.52916664;stroke-linecap:round;stroke-linejoin:miter;stroke-miterlimit:4;stroke-dasharray:none;stroke-dashoffset:0;stroke-opacity:1;paint-order:fill markers stroke"
       id="rect890"
       width="5.8208318"
       height="5.8208318"
       x="1.557668e-06"
       y="291.17917" />
    <path
       style="fill:#ff0000;stroke:none;stroke-width:0.26458332px;stroke-linecap:butt;stroke-linejoin:miter;stroke-opacity:1"
       d="m 2.9104704,291.80689 a 0.47804447,0.47804447 0 0 0 -0.04814,0.003 0.47804447,0.47804447 0 0 0 -0.04685,0.008 0.47804447,0.47804447 0 0 0 -0.04685,0.0116 0.47804447,0.47804447 0 0 0 -0.04478,0.016 0.47804447,0.47804447 0 0 0 -0.04284,0.0207 0.47804447,0.47804447 0 0 0 -0.04077,0.0254 0.47804447,0.47804447 0 0 0 -0.03818,0.0287 0.47804447,0.47804447 0 0 0 -0.03481,0.0327 0.47804447,0.47804447 0 0 0 -0.03145,0.0361 0.47804447,0.47804447 0 0 0 -0.02744,0.0388 l -0.02278,0.0388 -2.061775,3.57114 c -0.09615,0.15025 -0.100553,0.34169 -0.01165,0.49622 0.08942,0.15442 0.257115,0.24655 0.435367,0.23807 h 4.12153 c 0.178355,0.009 0.349217,-0.0836 0.438693,-0.23807 0.08942,-0.15485 0.08464,-0.34713 -0.01165,-0.49755 l -2.061089,-3.56981 -0.02407,-0.0414 a 0.47804447,0.47804447 0 0 0 -0.02808,-0.0388 0.47804447,0.47804447 0 0 0 -0.03145,-0.0361 0.47804447,0.47804447 0 0 0 -0.03546,-0.0321 0.47804447,0.47804447 0 0 0 -0.03818,-0.0287 0.47804447,0.47804447 0 0 0 -0.04077,-0.0247 0.47804447,0.47804447 0 0 0 -0.04284,-0.0207 0.47804447,0.47804447 0 0 0 -0.04542,-0.0161 0.47804447,0.47804447 0 0 0 -0.0462,-0.0116 0.47804447,0.47804447 0 0 0 -0.04749,-0.006 0.47804447,0.47804447 0 0 0 -0.04478,-0.003 z"
       id="path874"
       inkscape:connector-curvature="0" />
    <g
       id="g920"
       transform="matrix(0.69894311,0,0,0.69894311,-1.2259166,87.181853)"
       style="fill:#ffffff;stroke-width:1.43073153">
      <path
         id="path905"
         transform="matrix(0.26458333,0,0,0.26458333,0,292.50208)"
         d="m 22.367188,7.7265625 c -1.181537,0.044511 -2.127617,1.0105467 -2.126954,2.203125 0.263895,3.5854345 0.968763,6.2948755 1.5625,8.5332035 0.04503,0.169752 0.09898,0.246544 0.203125,0.357421 0.01707,0.01818 0.04103,0.02833 0.0625,0.04102 0.02157,0.01275 0.04374,0.02445 0.06641,0.03516 0.02297,0.01085 0.04627,0.02109 0.07031,0.0293 0.02363,0.0081 0.04792,0.014 0.07227,0.01953 0.02455,0.0056 0.04926,0.01043 0.07422,0.01367 0.0052,6.8e-4 0.01041,0.0014 0.01563,0.002 0.0053,-6.05e-4 0.01041,-0.0013 0.01562,-0.002 0.02496,-0.0038 0.04965,-0.0099 0.07422,-0.01367 0.02435,-0.0038 0.04864,-0.01197 0.07227,-0.01953 0.02404,-0.0076 0.04733,-0.01796 0.07031,-0.0293 0.02267,-0.01134 0.04483,-0.02382 0.06641,-0.03516 0.02147,-0.01474 0.04542,-0.02212 0.0625,-0.04102 0.104145,-0.111118 0.158095,-0.187721 0.203125,-0.357421 0.593737,-2.238312 1.298605,-4.947755 1.5625,-8.5332035 6.63e-4,-1.1925921 -0.945416,-2.1585266 -2.126953,-2.203125 z"
         style="opacity:1;fill:#ffffff;fill-opacity:1;stroke:none;stroke-width:2.86146307;stroke-linecap:round;stroke-linejoin:miter;stroke-miterlimit:4;stroke-dasharray:none;stroke-dashoffset:0;stroke-opacity:1;paint-order:fill markers stroke"
         inkscape:connector-curvature="0" />
      <circle
         r="0.3175"
         cy="297.92987"
         cx="5.917985"
         id="path915"
         style="opacity:1;fill:#ffffff;fill-opacity:1;stroke:none;stroke-width:0.75709546;stroke-linecap:round;stroke-linejoin:miter;stroke-miterlimit:4;stroke-dasharray:none;stroke-dashoffset:0;stroke-opacity:1;paint-order:fill markers stroke" />
    </g>
  </g>
</svg>
